<svg width="264" height="533" viewBox="0 0 264 533" fill="none" xmlns="http://www.w3.org/2000/svg" xmlns:xlink="http://www.w3.org/1999/xlink">
<g clip-path="url(#clip0_1016_2507)">
<g filter="url(#filter0_f_1016_2507)">
<rect width="2" height="62.5974" rx="0.201308" transform="matrix(-1 0 6.22723e-08 1 263.555 161.423)" fill="#DEDEDE"/>
<rect x="0.100654" y="-0.100654" width="2.20131" height="62.7987" rx="0.301962" transform="matrix(-1 0 6.22723e-08 1 263.756 161.423)" stroke="black" stroke-width="0.201308"/>
</g>
<g filter="url(#filter1_f_1016_2507)">
<rect x="0.100654" y="-0.100654" width="1.79869" height="62.3961" rx="0.140915" transform="matrix(-1 0 6.22723e-08 1 263.555 161.625)" stroke="#FAFAF8" stroke-width="0.201308"/>
</g>
<g filter="url(#filter2_f_1016_2507)">
<rect width="1.81177" height="4.42877" rx="0.100654" transform="matrix(-1 0 6.22723e-08 1 263.354 161.625)" fill="url(#paint0_linear_1016_2507)"/>
</g>
<g filter="url(#filter3_f_1016_2507)">
<rect x="263.354" y="223.819" width="1.81177" height="4.42877" rx="0.100654" transform="rotate(180 263.354 223.819)" fill="url(#paint1_linear_1016_2507)"/>
</g>
</g>
<g clip-path="url(#clip1_1016_2507)">
<g filter="url(#filter4_f_1016_2507)">
<rect x="2.27832" y="109.088" width="2" height="19.5974" rx="0.201308" fill="#DEDEDE"/>
<rect x="2.17767" y="108.987" width="2.20131" height="19.7987" rx="0.301962" stroke="black" stroke-width="0.201308"/>
</g>
<g filter="url(#filter5_f_1016_2507)">
<rect x="2.37884" y="109.189" width="1.79869" height="19.3961" rx="0.140915" stroke="#FAFAF8" stroke-width="0.201308"/>
</g>
<g filter="url(#filter6_f_1016_2507)">
<rect x="2.47949" y="109.289" width="1.81177" height="2.21439" rx="0.100654" fill="url(#paint2_linear_1016_2507)"/>
</g>
<g filter="url(#filter7_f_1016_2507)">
<rect width="1.81177" height="2.21439" rx="0.100654" transform="matrix(1 0 -6.22723e-08 -1 2.47949 128.484)" fill="url(#paint3_linear_1016_2507)"/>
</g>
</g>
<g clip-path="url(#clip2_1016_2507)">
<g filter="url(#filter8_f_1016_2507)">
<rect x="2.27832" y="147.132" width="2" height="40.5974" rx="0.201308" fill="#DEDEDE"/>
<rect x="2.17767" y="147.031" width="2.20131" height="40.7987" rx="0.301962" stroke="black" stroke-width="0.201308"/>
</g>
<g filter="url(#filter9_f_1016_2507)">
<rect x="2.37884" y="147.233" width="1.79869" height="40.3961" rx="0.140915" stroke="#FAFAF8" stroke-width="0.201308"/>
</g>
<g filter="url(#filter10_f_1016_2507)">
<rect x="2.47949" y="147.333" width="1.81177" height="4.42877" rx="0.100654" fill="url(#paint4_linear_1016_2507)"/>
</g>
<g filter="url(#filter11_f_1016_2507)">
<rect width="1.81177" height="4.42877" rx="0.100654" transform="matrix(1 0 -6.22723e-08 -1 2.47949 187.528)" fill="url(#paint5_linear_1016_2507)"/>
</g>
</g>
<g clip-path="url(#clip3_1016_2507)">
<g filter="url(#filter12_f_1016_2507)">
<rect x="2.27832" y="198.26" width="2" height="40.5974" rx="0.201308" fill="#DEDEDE"/>
<rect x="2.17767" y="198.159" width="2.20131" height="40.7987" rx="0.301962" stroke="black" stroke-width="0.201308"/>
</g>
<g filter="url(#filter13_f_1016_2507)">
<rect x="2.37884" y="198.361" width="1.79869" height="40.3961" rx="0.140915" stroke="#FAFAF8" stroke-width="0.201308"/>
</g>
<g filter="url(#filter14_f_1016_2507)">
<rect x="2.47949" y="198.461" width="1.81177" height="4.42877" rx="0.100654" fill="url(#paint6_linear_1016_2507)"/>
</g>
<g filter="url(#filter15_f_1016_2507)">
<rect width="1.81177" height="4.42877" rx="0.100654" transform="matrix(1 0 -6.22723e-08 -1 2.47949 238.656)" fill="url(#paint7_linear_1016_2507)"/>
</g>
</g>
<g clip-path="url(#clip4_1016_2507)">
<rect x="4.16895" y="0.473511" width="257.652" height="531.81" rx="42.271" fill="black"/>
<rect x="6.48417" y="2.78861" width="253.023" height="527.18" rx="39.9562" stroke="#515868" stroke-width="2.61678"/>
<rect x="4.67217" y="0.976615" width="256.646" height="530.803" rx="41.7678" stroke="#303640" stroke-width="1.00645"/>
<g opacity="0.9" filter="url(#filter16_f_1016_2507)">
<rect x="5.17578" y="1.68127" width="255.639" height="529.596" rx="41.4659" stroke="#717989" stroke-width="1.00645"/>
</g>
<g opacity="0.8" filter="url(#filter17_f_1016_2507)">
<rect x="8.59754" y="4.90174" width="248.796" height="522.953" rx="37.8426" stroke="#646464" stroke-width="0.402581"/>
</g>
<g clip-path="url(#clip5_1016_2507)">
<rect x="15.2402" y="11.5446" width="235.51" height="509.668" rx="33.213" fill="white"/>
<rect x="15.2402" y="11.5443" width="235.51" height="509.668" fill="url(#pattern0_1016_2507)"/>
<rect x="15.2402" y="11.5443" width="235.51" height="509.668" fill="url(#pattern1_1016_2507)"/>
</g>
<path d="M48.5353 33.9794C47.1028 33.9794 45.9838 33.1253 45.7622 31.8712H47.1461C47.319 32.4604 47.8758 32.8496 48.557 32.8496C49.7084 32.8496 50.4003 31.7684 50.3787 29.8818C50.3787 29.8818 50.3733 29.8818 50.3679 29.8818H50.3625H50.3571C50.0544 30.644 49.2543 31.1576 48.2434 31.1576C46.7623 31.1576 45.6541 30.0602 45.6541 28.579C45.6541 27.0006 46.8812 25.86 48.5678 25.86C49.7138 25.86 50.6436 26.4113 51.1625 27.406C51.5301 28.0439 51.7193 28.8601 51.7193 29.8332C51.7193 32.4334 50.5355 33.9794 48.5353 33.9794ZM48.5732 30.0656C49.4651 30.0656 50.1408 29.4169 50.1408 28.5574C50.1408 27.6871 49.4597 27.006 48.584 27.006C47.7137 27.006 47.0271 27.6817 47.0271 28.5358C47.0271 29.4169 47.6866 30.0656 48.5732 30.0656ZM53.6762 32.682C53.2383 32.682 52.8978 32.3415 52.8978 31.9036C52.8978 31.4711 53.2383 31.1252 53.6762 31.1252C54.1087 31.1252 54.4492 31.4711 54.4492 31.9036C54.4492 32.3415 54.1087 32.682 53.6762 32.682ZM53.6762 28.7791C53.2383 28.7791 52.8978 28.4331 52.8978 28.0006C52.8978 27.5682 53.2383 27.2222 53.6762 27.2222C54.1087 27.2222 54.4492 27.5682 54.4492 28.0006C54.4492 28.4331 54.1087 28.7791 53.6762 28.7791ZM59.4604 33.8226L59.4604 32.3469H55.5682L55.5682 31.1468C56.2439 29.871 57.1143 28.4817 58.8063 26.0221H60.7902L60.7902 31.2062H61.8389L61.8389 32.3469H60.7902L60.7902 33.8226H59.4604ZM56.8332 31.2008L56.8332 31.2387H59.482L59.482 27.0546H59.4604C58.2008 28.8818 57.4548 30.0332 56.8332 31.2008ZM64.6877 33.8226L64.6877 27.3519H64.6553L62.639 28.7682L62.639 27.4547L64.6769 26.0221H66.0554L66.0554 33.8226H64.6877Z" fill="white"/>
<g opacity="0.9">
<rect x="183.721" y="30.6669" width="2.01308" height="2.41569" rx="0.201291" fill="white"/>
<rect x="186.538" y="29.4595" width="2.01291" height="3.62323" rx="0.201291" fill="white"/>
<rect x="189.558" y="28.0502" width="2.01291" height="5.03227" rx="0.201291" fill="white"/>
<rect x="192.376" y="26.4399" width="2.01291" height="6.64259" rx="0.201291" fill="white"/>
</g>
<g opacity="0.9">
<path d="M210.321 28.1779C209.008 26.8561 207.189 26.0377 205.179 26.0377C203.163 26.0377 201.339 26.8611 200.025 28.1899L201.164 29.3286C202.186 28.2912 203.608 27.648 205.179 27.648C206.744 27.648 208.161 28.2862 209.182 29.3166L210.321 28.1779Z" fill="white"/>
<path d="M208.47 30.0283C207.631 29.18 206.466 28.6545 205.179 28.6545C203.885 28.6545 202.716 29.185 201.876 30.0403L203.014 31.179C203.563 30.6151 204.33 30.2648 205.179 30.2648C206.022 30.2648 206.784 30.6101 207.332 31.167L208.47 30.0283Z" fill="white"/>
<path d="M206.62 31.8787C206.254 31.504 205.744 31.2713 205.179 31.2713C204.608 31.2713 204.093 31.509 203.726 31.8908L205.167 33.3316L206.62 31.8787Z" fill="white"/>
</g>
<rect opacity="0.6" x="216.229" y="26.5406" width="13.4865" height="6.4413" rx="1.30839" stroke="white" stroke-width="0.603872"/>
<rect opacity="0.9" x="216.934" y="27.2454" width="12.0775" height="5.03227" rx="0.805163" fill="white"/>
<path opacity="0.6" d="M230.419 28.8557C230.864 28.8557 231.224 29.2162 231.224 29.6609L231.224 29.8622C231.224 30.307 230.864 30.6675 230.419 30.6675L230.419 28.8557Z" fill="white"/>
<rect x="95.7559" y="19.5964" width="74.4776" height="21.7394" rx="10.8697" fill="black"/>
<g opacity="0.75">
<rect x="150.306" y="25.4335" width="10.0645" height="10.0645" rx="5.03227" fill="#121212"/>
<rect x="150.306" y="25.4335" width="10.0645" height="10.0645" rx="5.03227" stroke="#0E0E0E" stroke-width="0.402581"/>
<g filter="url(#filter18_f_1016_2507)">
<path d="M154.216 28.2227C152.516 28.7211 151.949 31.5871 154.216 32.7086C153.649 31.2133 153.649 29.8426 154.216 28.2227Z" fill="#50A99A"/>
</g>
<g filter="url(#filter19_f_1016_2507)">
<path d="M153.843 29.2578C152.993 29.5262 152.71 31.0696 153.843 31.6735C153.56 30.8683 153.56 30.1301 153.843 29.2578Z" fill="#50A99A"/>
</g>
<g opacity="0.4" filter="url(#filter20_f_1016_2507)">
<path d="M154.192 28.8684C153.463 28.9782 152.931 30.9944 153.811 31.5297C153.499 30.8108 153.655 29.3729 154.192 28.8684Z" fill="#D0FFF7"/>
</g>
<g filter="url(#filter21_f_1016_2507)">
<path d="M156.46 28.2228C158.16 28.7212 158.727 31.5872 156.46 32.7087C157.027 31.2134 157.027 29.8427 156.46 28.2228Z" fill="#3E518C"/>
</g>
<g filter="url(#filter22_f_1016_2507)">
<path d="M156.833 29.2578C157.684 29.5262 157.967 31.0696 156.833 31.6735C157.117 30.8683 157.117 30.1301 156.833 29.2578Z" fill="#26408D"/>
</g>
<g opacity="0.5" filter="url(#filter23_f_1016_2507)">
<path d="M156.484 28.8684C157.213 28.9782 157.745 30.9944 156.865 31.5297C157.176 30.8108 157.021 29.3729 156.484 28.8684Z" fill="#0D308C"/>
</g>
</g>
<g opacity="0.4">
<g style="mix-blend-mode:screen" opacity="0.75">
<rect x="4.16895" y="475.117" width="3.62323" height="3.22065" fill="#7C7C7C"/>
</g>
<g style="mix-blend-mode:screen" opacity="0.75">
<rect x="57.1084" y="528.258" width="3.22065" height="3.62323" fill="#7C7C7C"/>
</g>
<g style="mix-blend-mode:screen" opacity="0.75">
<rect x="258.198" y="54.2181" width="3.62323" height="3.22065" fill="#7C7C7C"/>
</g>
<g style="mix-blend-mode:screen" opacity="0.75">
<rect x="4.16895" y="54.2181" width="3.62323" height="3.22065" fill="#7C7C7C"/>
</g>
<g style="mix-blend-mode:screen" opacity="0.75">
<rect x="209.285" y="0.473511" width="3.22065" height="3.62323" fill="#7C7C7C"/>
</g>
<g style="mix-blend-mode:screen" opacity="0.75">
<rect x="258.198" y="474.916" width="3.62323" height="3.22065" fill="#7C7C7C"/>
</g>
</g>
</g>
<defs>
<filter id="filter0_f_1016_2507" x="261.152" y="161.021" width="2.80496" height="63.4026" filterUnits="userSpaceOnUse" color-interpolation-filters="sRGB">
<feFlood flood-opacity="0" result="BackgroundImageFix"/>
<feBlend mode="normal" in="SourceGraphic" in2="BackgroundImageFix" result="shape"/>
<feGaussianBlur stdDeviation="0.100654" result="effect1_foregroundBlur_1016_2507"/>
</filter>
<filter id="filter1_f_1016_2507" x="261.353" y="161.222" width="2.40262" height="63" filterUnits="userSpaceOnUse" color-interpolation-filters="sRGB">
<feFlood flood-opacity="0" result="BackgroundImageFix"/>
<feBlend mode="normal" in="SourceGraphic" in2="BackgroundImageFix" result="shape"/>
<feGaussianBlur stdDeviation="0.100654" result="effect1_foregroundBlur_1016_2507"/>
</filter>
<filter id="filter2_f_1016_2507" x="261.341" y="161.423" width="2.21414" height="4.83133" filterUnits="userSpaceOnUse" color-interpolation-filters="sRGB">
<feFlood flood-opacity="0" result="BackgroundImageFix"/>
<feBlend mode="normal" in="SourceGraphic" in2="BackgroundImageFix" result="shape"/>
<feGaussianBlur stdDeviation="0.100654" result="effect1_foregroundBlur_1016_2507"/>
</filter>
<filter id="filter3_f_1016_2507" x="261.341" y="219.189" width="2.21414" height="4.83133" filterUnits="userSpaceOnUse" color-interpolation-filters="sRGB">
<feFlood flood-opacity="0" result="BackgroundImageFix"/>
<feBlend mode="normal" in="SourceGraphic" in2="BackgroundImageFix" result="shape"/>
<feGaussianBlur stdDeviation="0.100654" result="effect1_foregroundBlur_1016_2507"/>
</filter>
<filter id="filter4_f_1016_2507" x="1.87584" y="108.685" width="2.80496" height="20.4026" filterUnits="userSpaceOnUse" color-interpolation-filters="sRGB">
<feFlood flood-opacity="0" result="BackgroundImageFix"/>
<feBlend mode="normal" in="SourceGraphic" in2="BackgroundImageFix" result="shape"/>
<feGaussianBlur stdDeviation="0.100654" result="effect1_foregroundBlur_1016_2507"/>
</filter>
<filter id="filter5_f_1016_2507" x="2.07701" y="108.887" width="2.40262" height="20" filterUnits="userSpaceOnUse" color-interpolation-filters="sRGB">
<feFlood flood-opacity="0" result="BackgroundImageFix"/>
<feBlend mode="normal" in="SourceGraphic" in2="BackgroundImageFix" result="shape"/>
<feGaussianBlur stdDeviation="0.100654" result="effect1_foregroundBlur_1016_2507"/>
</filter>
<filter id="filter6_f_1016_2507" x="2.27818" y="109.088" width="2.21414" height="2.61697" filterUnits="userSpaceOnUse" color-interpolation-filters="sRGB">
<feFlood flood-opacity="0" result="BackgroundImageFix"/>
<feBlend mode="normal" in="SourceGraphic" in2="BackgroundImageFix" result="shape"/>
<feGaussianBlur stdDeviation="0.100654" result="effect1_foregroundBlur_1016_2507"/>
</filter>
<filter id="filter7_f_1016_2507" x="2.27818" y="126.068" width="2.21414" height="2.61697" filterUnits="userSpaceOnUse" color-interpolation-filters="sRGB">
<feFlood flood-opacity="0" result="BackgroundImageFix"/>
<feBlend mode="normal" in="SourceGraphic" in2="BackgroundImageFix" result="shape"/>
<feGaussianBlur stdDeviation="0.100654" result="effect1_foregroundBlur_1016_2507"/>
</filter>
<filter id="filter8_f_1016_2507" x="1.87584" y="146.729" width="2.80496" height="41.4026" filterUnits="userSpaceOnUse" color-interpolation-filters="sRGB">
<feFlood flood-opacity="0" result="BackgroundImageFix"/>
<feBlend mode="normal" in="SourceGraphic" in2="BackgroundImageFix" result="shape"/>
<feGaussianBlur stdDeviation="0.100654" result="effect1_foregroundBlur_1016_2507"/>
</filter>
<filter id="filter9_f_1016_2507" x="2.07701" y="146.931" width="2.40262" height="41" filterUnits="userSpaceOnUse" color-interpolation-filters="sRGB">
<feFlood flood-opacity="0" result="BackgroundImageFix"/>
<feBlend mode="normal" in="SourceGraphic" in2="BackgroundImageFix" result="shape"/>
<feGaussianBlur stdDeviation="0.100654" result="effect1_foregroundBlur_1016_2507"/>
</filter>
<filter id="filter10_f_1016_2507" x="2.27818" y="147.132" width="2.21414" height="4.83133" filterUnits="userSpaceOnUse" color-interpolation-filters="sRGB">
<feFlood flood-opacity="0" result="BackgroundImageFix"/>
<feBlend mode="normal" in="SourceGraphic" in2="BackgroundImageFix" result="shape"/>
<feGaussianBlur stdDeviation="0.100654" result="effect1_foregroundBlur_1016_2507"/>
</filter>
<filter id="filter11_f_1016_2507" x="2.27818" y="182.898" width="2.21414" height="4.83133" filterUnits="userSpaceOnUse" color-interpolation-filters="sRGB">
<feFlood flood-opacity="0" result="BackgroundImageFix"/>
<feBlend mode="normal" in="SourceGraphic" in2="BackgroundImageFix" result="shape"/>
<feGaussianBlur stdDeviation="0.100654" result="effect1_foregroundBlur_1016_2507"/>
</filter>
<filter id="filter12_f_1016_2507" x="1.87584" y="197.857" width="2.80496" height="41.4026" filterUnits="userSpaceOnUse" color-interpolation-filters="sRGB">
<feFlood flood-opacity="0" result="BackgroundImageFix"/>
<feBlend mode="normal" in="SourceGraphic" in2="BackgroundImageFix" result="shape"/>
<feGaussianBlur stdDeviation="0.100654" result="effect1_foregroundBlur_1016_2507"/>
</filter>
<filter id="filter13_f_1016_2507" x="2.07701" y="198.059" width="2.40262" height="41" filterUnits="userSpaceOnUse" color-interpolation-filters="sRGB">
<feFlood flood-opacity="0" result="BackgroundImageFix"/>
<feBlend mode="normal" in="SourceGraphic" in2="BackgroundImageFix" result="shape"/>
<feGaussianBlur stdDeviation="0.100654" result="effect1_foregroundBlur_1016_2507"/>
</filter>
<filter id="filter14_f_1016_2507" x="2.27818" y="198.26" width="2.21414" height="4.83133" filterUnits="userSpaceOnUse" color-interpolation-filters="sRGB">
<feFlood flood-opacity="0" result="BackgroundImageFix"/>
<feBlend mode="normal" in="SourceGraphic" in2="BackgroundImageFix" result="shape"/>
<feGaussianBlur stdDeviation="0.100654" result="effect1_foregroundBlur_1016_2507"/>
</filter>
<filter id="filter15_f_1016_2507" x="2.27818" y="234.026" width="2.21414" height="4.83133" filterUnits="userSpaceOnUse" color-interpolation-filters="sRGB">
<feFlood flood-opacity="0" result="BackgroundImageFix"/>
<feBlend mode="normal" in="SourceGraphic" in2="BackgroundImageFix" result="shape"/>
<feGaussianBlur stdDeviation="0.100654" result="effect1_foregroundBlur_1016_2507"/>
</filter>
<filter id="filter16_f_1016_2507" x="4.06898" y="0.574229" width="257.853" height="531.81" filterUnits="userSpaceOnUse" color-interpolation-filters="sRGB">
<feFlood flood-opacity="0" result="BackgroundImageFix"/>
<feBlend mode="normal" in="SourceGraphic" in2="BackgroundImageFix" result="shape"/>
<feGaussianBlur stdDeviation="0.301936" result="effect1_foregroundBlur_1016_2507"/>
</filter>
<filter id="filter17_f_1016_2507" x="7.9939" y="4.29786" width="250.003" height="524.161" filterUnits="userSpaceOnUse" color-interpolation-filters="sRGB">
<feFlood flood-opacity="0" result="BackgroundImageFix"/>
<feBlend mode="normal" in="SourceGraphic" in2="BackgroundImageFix" result="shape"/>
<feGaussianBlur stdDeviation="0.201291" result="effect1_foregroundBlur_1016_2507"/>
</filter>
<pattern id="pattern0_1016_2507" patternContentUnits="objectBoundingBox" width="1" height="1">
<use xlink:href="#image0_1016_2507" transform="matrix(0.00133333 0 0 0.000616114 0 -0.000284921)"/>
</pattern>
<pattern id="pattern1_1016_2507" patternContentUnits="objectBoundingBox" width="1" height="1">
<use xlink:href="#image1_1016_2507" transform="matrix(0.000666667 0 0 0.000308057 0 -0.000284921)"/>
</pattern>
<filter id="filter18_f_1016_2507" x="151.599" y="27.1012" width="3.73807" height="6.72891" filterUnits="userSpaceOnUse" color-interpolation-filters="sRGB">
<feFlood flood-opacity="0" result="BackgroundImageFix"/>
<feBlend mode="normal" in="SourceGraphic" in2="BackgroundImageFix" result="shape"/>
<feGaussianBlur stdDeviation="0.560738" result="effect1_foregroundBlur_1016_2507"/>
</filter>
<filter id="filter19_f_1016_2507" x="151.974" y="28.1363" width="2.991" height="4.6586" filterUnits="userSpaceOnUse" color-interpolation-filters="sRGB">
<feFlood flood-opacity="0" result="BackgroundImageFix"/>
<feBlend mode="normal" in="SourceGraphic" in2="BackgroundImageFix" result="shape"/>
<feGaussianBlur stdDeviation="0.560738" result="effect1_foregroundBlur_1016_2507"/>
</filter>
<filter id="filter20_f_1016_2507" x="152.605" y="28.1208" width="2.33515" height="4.15656" filterUnits="userSpaceOnUse" color-interpolation-filters="sRGB">
<feFlood flood-opacity="0" result="BackgroundImageFix"/>
<feBlend mode="normal" in="SourceGraphic" in2="BackgroundImageFix" result="shape"/>
<feGaussianBlur stdDeviation="0.373826" result="effect1_foregroundBlur_1016_2507"/>
</filter>
<filter id="filter21_f_1016_2507" x="155.338" y="27.1013" width="3.73807" height="6.72891" filterUnits="userSpaceOnUse" color-interpolation-filters="sRGB">
<feFlood flood-opacity="0" result="BackgroundImageFix"/>
<feBlend mode="normal" in="SourceGraphic" in2="BackgroundImageFix" result="shape"/>
<feGaussianBlur stdDeviation="0.560738" result="effect1_foregroundBlur_1016_2507"/>
</filter>
<filter id="filter22_f_1016_2507" x="155.712" y="28.1363" width="2.991" height="4.6586" filterUnits="userSpaceOnUse" color-interpolation-filters="sRGB">
<feFlood flood-opacity="0" result="BackgroundImageFix"/>
<feBlend mode="normal" in="SourceGraphic" in2="BackgroundImageFix" result="shape"/>
<feGaussianBlur stdDeviation="0.560738" result="effect1_foregroundBlur_1016_2507"/>
</filter>
<filter id="filter23_f_1016_2507" x="155.736" y="28.1208" width="2.33515" height="4.15656" filterUnits="userSpaceOnUse" color-interpolation-filters="sRGB">
<feFlood flood-opacity="0" result="BackgroundImageFix"/>
<feBlend mode="normal" in="SourceGraphic" in2="BackgroundImageFix" result="shape"/>
<feGaussianBlur stdDeviation="0.373826" result="effect1_foregroundBlur_1016_2507"/>
</filter>
<linearGradient id="paint0_linear_1016_2507" x1="0.905885" y1="0" x2="0.905885" y2="4.42877" gradientUnits="userSpaceOnUse">
<stop stop-color="#2D2E2A"/>
<stop offset="0.760033" stop-color="#DEDEDE"/>
</linearGradient>
<linearGradient id="paint1_linear_1016_2507" x1="264.259" y1="223.819" x2="264.259" y2="228.248" gradientUnits="userSpaceOnUse">
<stop stop-color="#2D2E2A"/>
<stop offset="0.760033" stop-color="#DEDEDE"/>
</linearGradient>
<linearGradient id="paint2_linear_1016_2507" x1="3.38538" y1="109.289" x2="3.38538" y2="111.504" gradientUnits="userSpaceOnUse">
<stop stop-color="#2D2E2A"/>
<stop offset="0.760033" stop-color="#DEDEDE"/>
</linearGradient>
<linearGradient id="paint3_linear_1016_2507" x1="0.905885" y1="0" x2="0.905885" y2="2.21439" gradientUnits="userSpaceOnUse">
<stop stop-color="#2D2E2A"/>
<stop offset="0.760033" stop-color="#DEDEDE"/>
</linearGradient>
<linearGradient id="paint4_linear_1016_2507" x1="3.38538" y1="147.333" x2="3.38538" y2="151.762" gradientUnits="userSpaceOnUse">
<stop stop-color="#2D2E2A"/>
<stop offset="0.760033" stop-color="#DEDEDE"/>
</linearGradient>
<linearGradient id="paint5_linear_1016_2507" x1="0.905885" y1="0" x2="0.905885" y2="4.42877" gradientUnits="userSpaceOnUse">
<stop stop-color="#2D2E2A"/>
<stop offset="0.760033" stop-color="#DEDEDE"/>
</linearGradient>
<linearGradient id="paint6_linear_1016_2507" x1="3.38538" y1="198.461" x2="3.38538" y2="202.89" gradientUnits="userSpaceOnUse">
<stop stop-color="#2D2E2A"/>
<stop offset="0.760033" stop-color="#DEDEDE"/>
</linearGradient>
<linearGradient id="paint7_linear_1016_2507" x1="0.905885" y1="0" x2="0.905885" y2="4.42877" gradientUnits="userSpaceOnUse">
<stop stop-color="#2D2E2A"/>
<stop offset="0.760033" stop-color="#DEDEDE"/>
</linearGradient>
<clipPath id="clip0_1016_2507">
<path d="M263.756 161.625C263.756 161.402 263.576 161.222 263.353 161.222H261.743L261.743 224.433H263.353C263.576 224.433 263.756 224.252 263.756 224.03L263.756 161.625Z" fill="white"/>
</clipPath>
<clipPath id="clip1_1016_2507">
<path d="M2.07715 109.289C2.07715 109.067 2.25741 108.887 2.47976 108.887H4.09023L4.09023 128.414H2.47977C2.25741 128.414 2.07715 128.233 2.07715 128.011L2.07715 109.289Z" fill="white"/>
</clipPath>
<clipPath id="clip2_1016_2507">
<path d="M2.07715 147.333C2.07715 147.111 2.25741 146.931 2.47976 146.931H4.09023L4.09023 187.595H2.47977C2.25741 187.595 2.07715 187.415 2.07715 187.192L2.07715 147.333Z" fill="white"/>
</clipPath>
<clipPath id="clip3_1016_2507">
<path d="M2.07715 198.461C2.07715 198.239 2.25741 198.059 2.47976 198.059H4.09023L4.09023 238.723H2.47977C2.25741 238.723 2.07715 238.543 2.07715 238.32L2.07715 198.461Z" fill="white"/>
</clipPath>
<clipPath id="clip4_1016_2507">
<rect x="4.16895" y="0.473511" width="257.652" height="531.81" rx="42.271" fill="white"/>
</clipPath>
<clipPath id="clip5_1016_2507">
<rect x="15.2402" y="11.5446" width="235.51" height="509.668" rx="33.213" fill="white"/>
</clipPath>



</defs>
</svg>
