<svg xmlns="http://www.w3.org/2000/svg" width="168px" height="168px" viewBox="0 0 168 168" version="1.1" xmlns:xlink="http://www.w3.org/1999/xlink"><path d="M80.871 21.448A5.25 5.25 0 0 1 84 26.25v115.5a5.25 5.25 0 0 1 -8.785 3.885L38.22 112H19.25A12.25 12.25 0 0 1 7 99.75v-31.5C7 61.488 12.488 56 19.25 56h18.97l36.995 -33.635a5.25 5.25 0 0 1 5.656 -0.91zM73.5 38.115l-29.715 27.02a5.25 5.25 0 0 1 -3.535 1.365h-21a1.75 1.75 0 0 0 -1.75 1.75v31.5c0 0.966 0.784 1.75 1.75 1.75h21a5.25 5.25 0 0 1 3.535 1.365l29.715 27.02z" fill="#ffffff"></path><path d="M131.026 29.554a5.25 5.25 0 0 1 7.42 0c30.072 30.072 30.072 78.82 0 108.892a5.25 5.25 0 0 1 -7.42 -7.42 66.5 66.5 0 0 0 0 -94.052 5.25 5.25 0 0 1 0 -7.42" fill="#ffffff"></path><path d="M113.701 54.299a5.25 5.25 0 1 0 -7.427 7.427 31.5 31.5 0 0 1 0 44.548 5.25 5.25 0 0 0 7.42 7.42 42 42 0 0 0 0 -59.395z" fill="#ffffff"></path></svg>