<svg width="235" height="61" viewBox="0 0 235 61" fill="none" xmlns="http://www.w3.org/2000/svg">
<path d="M19.6395 15.9721H27.6309C27.8249 15.9549 28.0203 15.9797 28.2039 16.0449C28.3874 16.1101 28.5547 16.2141 28.6944 16.3498C28.9235 16.6591 29.0374 17.0387 29.0164 17.423C29.0164 18.7994 27.949 20.7202 26.211 20.7202H18.5281L19.6395 15.9721Z" fill="white"/>
<path fill-rule="evenodd" clip-rule="evenodd" d="M15.5368 7.625H36.4922C39.2497 7.625 42.474 9.63753 41.6141 13.9596C40.621 18.2038 39.4315 23.37 38.872 25.8004H30.2326C25.5702 25.8004 21.6525 29.2453 20.6448 33.4895V33.527H18.3164C18.1752 33.5242 18.0367 33.5655 17.9202 33.6453L9.3585 39.7241C9.24071 39.8083 9.09996 39.8544 8.95517 39.8562C8.81033 39.8588 8.66813 39.8172 8.54754 39.737C8.42696 39.6568 8.33371 39.5417 8.28022 39.4072C8.22681 39.273 8.21527 39.1257 8.24712 38.9849L9.48151 33.527C6.05981 33.527 3.93237 30.7034 4.75569 27.2365C4.75569 27.2365 6.81294 18.2001 7.8391 13.9155C8.86619 9.63026 12.1053 7.625 15.5368 7.625ZM18.2906 23.1068H26.2111C29.2725 23.1068 31.4037 20.1101 31.4037 17.423C31.4337 16.4642 31.1121 15.5274 30.4993 14.789C30.1397 14.3892 29.696 14.074 29.2 13.8659C28.7041 13.6579 28.1681 13.5621 27.6307 13.5856H18.8024C18.5006 13.5854 18.2076 13.6874 17.9713 13.8749C17.735 14.0625 17.5692 14.3246 17.5011 14.6184L14.6886 26.7994C14.6484 26.97 14.6425 27.1469 14.671 27.3198C14.6985 27.4932 14.7609 27.6581 14.8536 27.8073C14.9461 27.9558 15.0673 28.0851 15.2105 28.1879C15.3532 28.2895 15.5147 28.362 15.6852 28.4023C15.7852 28.4241 15.8871 28.4352 15.9887 28.4352C16.2908 28.437 16.5844 28.3357 16.8211 28.1481C17.0577 27.9604 17.2232 27.6977 17.29 27.4033L18.2906 23.1068Z" fill="white"/>
<path fill-rule="evenodd" clip-rule="evenodd" d="M51.5475 27.6068L52.7929 22.0558C52.8149 21.9548 52.814 21.8503 52.7904 21.7497C52.7667 21.6492 52.7209 21.5552 52.6563 21.4746C52.5912 21.3948 52.5095 21.3301 52.4168 21.2851C52.3236 21.24 52.2215 21.2165 52.118 21.2163C51.9759 21.2172 51.8363 21.2621 51.7217 21.3453L43.1227 27.4655C43.0059 27.5489 42.8662 27.594 42.7227 27.5948H30.2031C26.7708 27.5948 23.3245 30.4001 22.5019 33.8635L19.403 47.066C18.5841 50.5294 21.4525 53.3567 24.1288 53.3567H45.4729C48.9047 53.3567 52.3518 50.5477 53.1744 47.066L56.2576 33.8635C57.0919 30.4001 54.9828 27.6068 51.5475 27.6068ZM47.4703 36.8567L42.8485 46.8105C42.7385 47.0388 42.5674 47.2322 42.3543 47.3693C42.1411 47.5065 41.8941 47.582 41.6406 47.5875H41.581C41.336 47.5872 41.0955 47.522 40.884 47.3985C40.6725 47.275 40.4975 47.0977 40.3769 46.8846L37.4231 41.6673L31.122 47.2549C30.9088 47.4381 30.6458 47.554 30.3666 47.5876C30.0874 47.6212 29.8044 47.5711 29.5538 47.4437C29.3022 47.3135 29.0963 47.1098 28.9633 46.8598C28.8314 46.6095 28.779 46.325 28.8131 46.0442L30.0949 36.0539C30.1153 35.8702 30.1717 35.6925 30.2609 35.5307C30.3507 35.3686 30.4724 35.2264 30.6186 35.1126C30.7644 34.9983 30.9317 34.9143 31.1104 34.8657C31.2892 34.8171 31.476 34.8047 31.6596 34.8294C31.8429 34.8541 32.0194 34.9156 32.1784 35.0101C32.3381 35.1038 32.4772 35.2287 32.5875 35.3774C32.6978 35.526 32.7769 35.6954 32.8203 35.8753C32.8644 36.0548 32.8719 36.2418 32.8414 36.4241L32.0556 42.7221L36.8737 38.4476C37.0288 38.3109 37.2123 38.2104 37.4111 38.1535C37.6099 38.0966 37.8189 38.0847 38.0229 38.1187C38.2271 38.1516 38.4213 38.2302 38.5908 38.3488C38.7602 38.4674 38.9006 38.6228 39.0014 38.8033L41.4554 43.1765L44.9393 35.6761C45.0506 35.4367 45.2278 35.2339 45.4502 35.0915C45.6729 34.9495 45.9314 34.8739 46.1956 34.8733C46.4305 34.8724 46.6618 34.931 46.8679 35.0438C47.074 35.1565 47.2482 35.3195 47.3741 35.5178C47.4997 35.7165 47.5732 35.9429 47.5868 36.1775C47.5999 36.4116 47.5536 36.6453 47.452 36.8567H47.4703Z" fill="white"/>
<path fill-rule="evenodd" clip-rule="evenodd" d="M175.65 33.3942C175.186 35.5888 174.012 37.5695 172.308 39.0303C170.719 40.3462 168.712 41.0518 166.648 41.0199C164.491 41.0199 162.936 40.3475 161.984 39.0022C161.032 37.6567 160.853 35.7788 161.45 33.3658L162.873 27.6459C163.343 25.4564 164.511 23.4787 166.203 22.0099C167.78 20.6657 169.792 19.9406 171.865 19.9697C174.009 19.9697 175.567 20.6461 176.534 22.0097C177.501 23.3735 177.687 25.2394 177.097 27.6461L175.65 33.3942ZM173.125 27.6287C173.5 26.1715 173.5 25.0681 173.125 24.3211C172.932 23.9436 172.629 23.6333 172.256 23.4312C171.883 23.2303 171.458 23.1475 171.037 23.1938C170.544 23.1838 170.055 23.2792 169.601 23.4736C169.148 23.668 168.742 23.957 168.409 24.3211C167.596 25.2685 167.041 26.4101 166.8 27.6351L165.365 33.3996C164.99 34.8842 164.979 35.9961 165.332 36.7365C165.681 37.4744 166.372 37.8638 167.409 37.8638C167.901 37.8672 168.388 37.7692 168.84 37.576C169.292 37.3813 169.699 37.0955 170.035 36.7365C170.879 35.7894 171.457 34.6364 171.711 33.3942L173.125 27.6287ZM112.613 34.4415C112.639 34.766 112.598 35.0922 112.492 35.4001C112.337 36.1147 111.956 36.7607 111.406 37.243C110.834 37.7124 110.109 37.9534 109.37 37.9194C108.295 37.9194 107.563 37.6435 107.17 37.091C106.775 36.5392 106.73 35.6319 107.046 34.369H103.168L103.118 34.4535C102.56 36.5842 102.842 38.2127 103.968 39.34C104.584 39.9201 105.312 40.3691 106.107 40.6597C106.902 40.9504 107.748 41.0767 108.593 41.0309C110.397 41.0753 112.168 40.5508 113.657 39.5317C115.079 38.5478 116.083 37.0685 116.47 35.3837C116.892 33.6708 116.745 32.3117 116.02 31.3089C115.292 30.3055 114.045 29.477 112.279 28.8234C111.46 28.4724 110.709 27.9801 110.061 27.369C109.864 27.1402 109.73 26.8639 109.673 26.5674C109.616 26.271 109.637 25.9648 109.735 25.6791C109.904 24.9686 110.299 24.3318 110.86 23.8636C111.432 23.3993 112.154 23.1589 112.891 23.1872C113.237 23.1511 113.586 23.2135 113.897 23.3673C114.209 23.521 114.471 23.7598 114.653 24.056C114.98 24.7637 115.027 25.5693 114.782 26.3097H118.647L118.698 26.2253C119.165 24.4445 118.956 22.9848 118.039 21.7896C117.122 20.5954 115.682 20.0319 113.747 20.0319C111.918 20.0037 110.127 20.5562 108.632 21.6099C107.205 22.5665 106.185 24.0186 105.768 25.6847C105.348 27.3864 105.551 28.7016 106.376 29.6291C107.201 30.5574 108.582 31.3969 110.517 32.1484C111.235 32.4362 111.865 32.9063 112.345 33.5122C112.497 33.8003 112.588 34.1165 112.613 34.4413L112.613 34.4415ZM72.9554 33.3949L71.1322 40.721H67.1428L72.2067 20.3085H79.29C81.3278 20.3085 82.7787 20.9115 83.6562 22.1122C84.5347 23.3118 84.7256 24.8955 84.2192 26.8515C83.7877 28.7136 82.7509 30.3803 81.271 31.5912C79.7993 32.7835 77.9555 33.4219 76.0611 33.3949H72.9554ZM73.7486 30.2102H76.8436C77.2532 30.2158 77.6594 30.1349 78.0355 29.9727C78.4117 29.8105 78.7493 29.5706 79.0262 29.2689C79.6532 28.599 80.0903 27.7743 80.2927 26.8796C80.5402 26.0872 80.5183 25.2351 80.2303 24.4565C80.0819 24.1425 79.8401 23.8819 79.5379 23.7103C79.2358 23.5387 78.888 23.4645 78.5421 23.4979H75.4479L73.7486 30.2102ZM103.186 20.3132L99.7259 34.2059C99.3059 36.2173 98.1854 38.0145 96.5638 39.2776C94.9973 40.4591 93.0798 41.0821 91.1175 41.0473C89.0542 41.0473 87.5327 40.4561 86.5544 39.2722C85.5749 38.0891 85.3557 36.4092 85.8959 34.2343L89.3558 20.3416H93.3339L89.874 34.2343C89.5622 35.4815 89.5906 36.3982 89.9585 36.9847C90.1749 37.2933 90.4704 37.538 90.814 37.6933C91.1572 37.849 91.536 37.9097 91.9108 37.8692C92.7899 37.8972 93.6481 37.5979 94.319 37.0295C95.0751 36.258 95.579 35.2753 95.7642 34.2113L99.2251 20.3198L103.186 20.3132ZM133.069 40.7266H129.096L131.201 32.2732H124.871L122.767 40.7264H118.777L123.84 20.3132H127.824L125.641 29.0883H131.971L134.154 20.3132H138.132L133.069 40.7266ZM152.898 33.3381H152.813L153.06 20.3132H150.202L144.013 33.3381H143.929L144.975 20.3132H141.11L139.984 40.7266H143.681L149.651 28.2204H149.736L149.493 40.7266H153.202L162.204 20.3132H158.338L152.898 33.3381ZM189.801 39.0301C191.506 37.572 192.679 35.5898 193.137 33.3939L194.566 27.6743C195.157 25.2676 194.971 23.4019 194.003 22.0381C193.036 20.6743 191.478 19.9979 189.334 19.9979C187.262 19.9687 185.25 20.6939 183.674 22.0381C181.979 23.5043 180.81 25.4832 180.343 27.6743L178.919 33.3939C178.328 35.818 178.503 37.6829 179.454 39.0301C180.403 40.3775 181.963 41.0473 184.118 41.0473C186.193 41.0762 188.209 40.3605 189.801 39.0301ZM190.611 24.3209C190.986 25.0679 190.986 26.1713 190.611 27.6294L189.154 33.3939C188.915 34.6324 188.352 35.7855 187.522 36.7363C187.186 37.0953 186.778 37.3811 186.326 37.5757C185.874 37.7692 185.387 37.8672 184.895 37.8636C183.854 37.8636 183.161 37.4748 182.818 36.7363C182.462 35.9958 182.471 34.8842 182.846 33.4003L184.282 27.6348C184.527 26.4102 185.082 25.2691 185.896 24.3209C186.229 23.9572 186.636 23.6683 187.089 23.4732C187.542 23.2788 188.031 23.1834 188.524 23.1936C188.945 23.1477 189.369 23.2312 189.741 23.4329C190.115 23.6336 190.418 23.9434 190.611 24.3209ZM205.439 35.4001C205.545 35.0921 205.586 34.766 205.559 34.4415C205.535 34.1167 205.444 33.8004 205.292 33.5122C204.811 32.9049 204.179 32.4345 203.458 32.1484C201.528 31.4107 200.144 30.5703 199.323 29.6291C198.501 28.6878 198.293 27.3744 198.714 25.6847C199.131 24.019 200.152 22.5671 201.578 21.6099C203.071 20.5571 204.86 20.0046 206.687 20.0319C208.629 20.0319 210.065 20.5954 210.982 21.7896C211.899 22.9848 212.106 24.4445 211.639 26.2253L211.593 26.3097H207.723C207.963 25.5683 207.916 24.7627 207.588 24.0551C207.408 23.7589 207.147 23.5201 206.836 23.3669C206.525 23.2129 206.177 23.1506 205.832 23.1872C205.09 23.1548 204.362 23.3955 203.785 23.8636C203.223 24.3315 202.828 24.9683 202.658 25.6791C202.557 25.9644 202.534 26.2717 202.592 26.569C202.649 26.866 202.785 27.1423 202.985 27.369C203.633 27.98 204.384 28.4723 205.202 28.8236C206.97 29.477 208.216 30.3055 208.944 31.3089C209.665 32.3117 209.815 33.6698 209.388 35.3835C209.001 37.0687 207.998 38.5484 206.574 39.5315C205.087 40.5525 203.315 41.0772 201.511 41.0307C200.667 41.0763 199.822 40.95 199.028 40.6593C198.234 40.3687 197.507 39.9197 196.892 39.3398C195.766 38.2127 195.484 36.5842 196.042 34.4535L196.093 34.369H199.97C199.654 35.6319 199.694 36.5392 200.087 37.091C200.487 37.6546 201.213 37.9194 202.294 37.9194C203.033 37.9532 203.758 37.7122 204.329 37.243C204.888 36.7644 205.278 36.1179 205.439 35.4001ZM222.041 40.7266H226.014L231.079 20.3132H227.104L224.916 29.0883H218.593L220.775 20.3132H216.786L211.723 40.7266H215.712L217.817 32.2732H224.146L222.041 40.7266Z" fill="white"/>
</svg>
