<svg width="212" height="37" viewBox="0 0 212 37" fill="none" xmlns="http://www.w3.org/2000/svg">
<path fill-rule="evenodd" clip-rule="evenodd" d="M13.0892 0.741908C12.0723 1.01473 10.3362 1.70918 9.24489 2.27962C7.92212 2.97407 6.67376 3.90001 5.49981 5.05743C4.53254 5.9999 3.31725 7.46321 2.79641 8.28167C2.27557 9.10013 1.53151 10.613 1.15949 11.6299C0.787459 12.6468 0.341025 14.5069 0.167412 15.7222C-0.0558042 17.4584 -0.0558042 18.4008 0.167412 19.9385C0.316224 21.0298 0.737855 22.8156 1.10988 23.9068C1.48191 24.9981 2.30037 26.6846 2.94522 27.6271C3.59007 28.5944 4.80536 30.0329 5.67342 30.8514C6.54149 31.6698 8.0544 32.7859 8.99687 33.3315C9.93934 33.8772 11.6259 34.5716 12.7171 34.8941C14.2549 35.3653 15.2965 35.4893 17.4295 35.5141C19.5873 35.5141 20.6041 35.4149 22.2659 34.9437C23.5556 34.5716 25.1429 33.8772 26.3582 33.1331C27.4494 32.4883 28.9376 31.3722 29.6568 30.6529C30.3761 29.9337 31.4673 28.644 32.0626 27.7511C32.6578 26.8583 33.4763 25.2461 33.8979 24.1549C34.2948 23.0636 34.7412 21.2282 34.9148 20.0625C35.0636 18.8969 35.138 17.2847 35.0388 16.4663C34.9644 15.6478 34.6668 14.1597 34.394 13.1924C34.1459 12.2004 33.6251 10.7867 33.2779 10.0922C32.9059 9.37295 32.1618 8.10806 31.5666 7.2896C30.9961 6.47113 29.9048 5.25584 29.136 4.56139C28.3919 3.89174 26.9038 2.85007 25.8125 2.27962C24.746 1.70918 22.9851 1.01473 21.8938 0.717106C20.5049 0.36988 19.1656 0.221069 17.4295 0.221069C15.7926 0.245871 14.3293 0.419484 13.0892 0.741908ZM44.5875 17.5824V30.9754H49.0519L49.1759 7.78563L57.2365 7.66162V30.9754L61.8248 30.8514L61.9488 4.18936H44.5875V17.5824ZM72.192 11.9523C72.564 11.7291 73.1841 11.4563 73.5561 11.3571C73.9281 11.2331 74.8954 11.2083 75.7138 11.2827C76.5323 11.3323 77.5988 11.5803 78.07 11.8283C78.5413 12.0515 79.2853 12.622 79.7317 13.0684C80.1782 13.4901 80.7734 14.3085 81.0462 14.8542C81.3191 15.3998 81.7159 16.5407 81.9143 17.4088C82.1127 18.252 82.2863 19.9633 82.2863 21.1786C82.2863 22.3939 82.1127 24.1301 81.8895 25.0229C81.6911 25.9158 81.1702 27.2303 80.7238 27.9495C80.2774 28.6688 79.4837 29.5617 78.9381 29.9585C78.3924 30.3305 77.5492 30.7769 77.0779 30.9506C76.6067 31.0994 75.6642 31.2234 74.9698 31.2234C74.2753 31.2234 73.2585 31.0002 72.688 30.7273C72.0928 30.4545 71.3487 29.9585 71.0015 29.6113C70.6543 29.264 70.3318 29.0656 70.2574 29.1648C70.183 29.2888 70.1334 30.9506 70.1334 36.4318H65.6691V11.6299H69.8854V12.498C69.8854 12.9692 69.9598 13.4157 70.0838 13.4901C70.183 13.5397 70.5303 13.3164 70.8775 12.9692C71.2247 12.622 71.82 12.1508 72.192 11.9523ZM90.4213 11.4067C89.4789 11.5307 88.1396 11.8531 87.4451 12.1508C86.7259 12.4236 85.9818 12.7956 85.8082 12.9444C85.6098 13.1428 85.4858 13.8373 85.5106 14.9286C85.5106 15.8462 85.5354 16.5903 85.585 16.5903C85.6098 16.5903 86.2794 16.3175 87.0731 15.9702C87.8419 15.623 89.3053 15.2262 90.2973 15.0774C91.6118 14.8542 92.3559 14.8542 93.1495 15.0774C93.9184 15.2758 94.2904 15.5486 94.5632 16.0943C94.7617 16.5159 94.9353 17.2599 94.9353 17.7808V18.6984C91.3886 18.9713 89.6277 19.2689 88.7348 19.5417C87.8419 19.8145 86.6763 20.4098 86.1554 20.8562C85.6098 21.3026 84.9649 22.1211 84.7169 22.6667C84.4937 23.2124 84.2705 24.2293 84.2705 24.8989C84.2705 25.5934 84.4193 26.7094 84.6177 27.3791C84.8409 28.1231 85.3122 28.9168 85.8082 29.388C86.2546 29.8345 86.9739 30.3305 87.3707 30.5289C87.7675 30.7521 88.5612 30.9754 89.1068 31.0498C89.6525 31.149 90.7686 31.0994 91.587 30.9754C92.6287 30.8017 93.348 30.5041 93.9432 30.0081L94.8113 29.2888L95.3321 30.8514L99.5236 31.0002C99.3996 19.3433 99.2508 15.5486 99.1268 15.0526C99.0028 14.5317 98.4819 13.6637 97.9859 13.0932C97.3907 12.4732 96.6466 11.9771 95.9273 11.7539C95.3073 11.5803 94.1912 11.3819 93.4472 11.3075C92.7031 11.2579 91.339 11.3075 90.4213 11.4067ZM103.12 30.9754V21.3026V11.6299H107.584V15.7222C107.584 18.2024 107.683 19.8641 107.832 19.9385C107.981 20.0129 109.395 18.1776 113.909 11.6299H118.497L117.654 12.7956C117.401 13.1748 116.854 13.9518 116.211 14.8652L116.209 14.8673L116.209 14.8681L116.208 14.8686C115.716 15.5672 115.168 16.3454 114.653 17.0863L114.306 17.5848C113.267 19.078 112.416 20.3004 112.371 20.4346C112.321 20.5834 113.785 22.8652 115.67 25.519C117.53 28.1728 119.092 30.5041 119.142 30.6777C119.216 30.901 118.646 30.9754 114.405 31.0002L111.18 26.5358C109.42 24.0804 107.882 22.1211 107.783 22.1707C107.659 22.2451 107.584 24.2541 107.584 30.9754H103.12ZM119.489 13.366V15.1022H124.697V30.9754H129.162L129.286 15.2262L134.618 15.1022V11.6299H119.489V13.366ZM137.346 30.9754V21.3026V11.6299H141.563V17.2103C141.563 21.129 141.637 22.7659 141.836 22.7411C141.984 22.6915 143.522 20.2114 148.408 11.7539L152.476 11.6299V30.9754H148.259V25.2709C148.259 21.6251 148.16 19.5665 148.011 19.5665C147.887 19.5665 146.275 22.1459 141.191 31.0002L137.346 30.9754ZM156.444 21.3026V30.9754H160.908L161.032 21.7491L167.605 30.9754C171.201 30.9754 172.317 30.901 172.391 30.8017C172.491 30.6777 172.193 30.1073 171.722 29.4872L171.509 29.1926L171.218 28.7884C170.509 27.8054 169.301 26.1303 168.15 24.5269L165.422 20.6826C170.184 13.8621 171.573 11.8283 171.573 11.7539C171.573 11.6795 170.606 11.6299 169.415 11.6299L167.233 11.6051L161.032 20.385L160.908 11.6299H156.444V21.3026ZM175.541 21.9227C173.756 16.4663 172.317 11.9275 172.317 11.8283C172.317 11.7043 173.359 11.6299 176.905 11.6299L178.89 18.5C180.006 22.2947 180.998 25.3701 181.122 25.3453C181.271 25.3205 182.238 22.2451 183.304 18.5248C184.371 14.8046 185.264 11.7291 185.288 11.6795C185.313 11.6547 186.305 11.6547 189.604 11.7539L186.479 21.4266C184.743 26.7342 183.031 31.7194 182.709 32.4635C182.362 33.2075 181.692 34.2492 181.221 34.7948C180.75 35.3157 179.931 35.9605 179.386 36.2334C178.79 36.531 177.823 36.7542 177.029 36.779C176.285 36.779 175.368 36.7046 174.996 36.6054C174.326 36.4318 174.301 36.3822 174.301 34.5716C174.301 32.9099 174.351 32.7363 174.748 32.8851C174.971 32.9595 175.616 33.0835 176.161 33.1579C176.98 33.2571 177.277 33.1579 178.766 31.8434L175.541 21.9227ZM191.414 21.3026V30.9754H195.135C195.135 20.1866 195.234 17.8304 195.383 17.8304C195.507 17.8304 195.854 18.5744 196.102 19.5169C196.375 20.4346 197.168 23.1876 197.863 25.643C198.116 26.5382 198.359 27.4005 198.57 28.1469L198.583 28.1922L198.599 28.2494L198.6 28.2524L198.608 28.2801C198.955 29.512 199.206 30.4016 199.252 30.5537C199.326 30.901 199.649 30.9754 201.211 30.9754H203.071C203.761 28.7844 204.322 27.0033 204.778 25.5586L204.794 25.5063L204.795 25.5049C205.705 22.6178 206.189 21.0858 206.42 20.3106C206.792 19.1449 207.238 18.0288 207.436 17.8304C207.734 17.508 207.784 18.376 207.784 24.2293V30.9754H212V11.6299H205.8C202.476 21.9723 201.707 24.0308 201.583 23.7828C201.484 23.5844 200.616 20.757 199.698 17.508L197.987 11.6299H191.414V21.3026ZM13.6597 8.62893C14.1557 8.35611 14.999 8.05849 15.5198 7.93448C16.0159 7.81047 17.9752 7.71126 23.258 7.66166V27.9992H19.7857V10.2659L18.124 10.4147C17.1816 10.5139 16.0655 10.7619 15.6438 10.9851C15.1974 11.2083 14.6022 11.754 14.3293 12.2004C14.0069 12.6964 13.8333 13.4405 13.8333 14.1845C13.8333 14.8294 13.9821 15.7223 14.1805 16.1687C14.3541 16.5903 14.999 17.4088 15.5942 17.9792C16.1895 18.5249 17.1567 19.2689 18.7937 20.3106L13.7093 27.9992H11.9236C10.9315 27.9992 10.113 27.9248 10.113 27.8256C10.113 27.7016 11.0803 26.1886 14.3541 21.1787L13.0148 19.9386C12.2708 19.2689 11.4027 18.2024 11.1051 17.5824C10.7827 16.9623 10.4851 15.8463 10.4106 15.1022C10.361 14.3582 10.4106 13.1925 10.5843 12.498C10.7579 11.7044 11.2043 10.8611 11.7996 10.1666C12.2956 9.5714 13.1389 8.87695 13.6597 8.62893ZM71.3736 16.0199C71.6464 15.6231 72.1424 15.2014 72.4401 15.1022C72.7377 14.9782 73.5065 14.879 74.1762 14.879C75.0691 14.8542 75.5155 15.003 76.0859 15.4742C76.582 15.8711 76.954 16.5407 77.202 17.4088C77.4252 18.1528 77.5741 19.6906 77.5741 21.1291C77.5741 22.4436 77.45 24.0061 77.326 24.6013C77.1772 25.1718 76.7556 26.015 76.3836 26.4615C75.9867 26.9575 75.3667 27.3543 74.8458 27.4783C74.3746 27.5775 73.5809 27.6023 73.1097 27.5279C72.6385 27.4535 71.944 27.1063 71.5968 26.7591C71.2248 26.4119 70.7783 25.643 70.6047 25.023C70.4311 24.4029 70.2823 22.7164 70.2823 21.1787C70.2575 19.6658 70.4063 18.0536 70.5551 17.5824C70.7287 17.1112 71.1008 16.3919 71.3736 16.0199ZM92.4552 22.1707C92.2567 22.2203 91.6863 22.3195 91.2151 22.394C90.7438 22.4684 90.0494 22.8156 89.6773 23.1628C89.1069 23.6837 88.9829 23.9813 88.9829 25.023C88.9829 26.0894 89.0821 26.3622 89.8014 27.0567C90.5454 27.776 90.6942 27.8256 92.0087 27.7264C92.9016 27.6767 93.6457 27.4535 94.1169 27.1063C94.7865 26.6103 94.8113 26.4863 94.8609 24.3037L94.9353 22.0467C93.2984 22.0963 92.6536 22.1459 92.4552 22.1707Z" fill="white"/>
</svg>
