<svg width="28" height="28" viewBox="0 0 28 28" fill="none" xmlns="http://www.w3.org/2000/svg">
<path d="M13.9998 0.781738C6.63984 0.781738 0.666504 6.75507 0.666504 14.1151C0.666504 21.4751 6.63984 27.4484 13.9998 27.4484C21.3598 27.4484 27.3332 21.4751 27.3332 14.1151C27.3332 6.75507 21.3598 0.781738 13.9998 0.781738ZM20.1865 9.8484C19.9865 11.9551 19.1198 17.0751 18.6798 19.4351C18.4932 20.4351 18.1198 20.7684 17.7732 20.8084C16.9998 20.8751 16.4132 20.3017 15.6665 19.8084C14.4932 19.0351 13.8265 18.5551 12.6932 17.8084C11.3732 16.9417 12.2265 16.4617 12.9865 15.6884C13.1865 15.4884 16.5998 12.3817 16.6665 12.1017C16.6758 12.0593 16.6745 12.0153 16.6629 11.9735C16.6513 11.9317 16.6296 11.8933 16.5998 11.8617C16.5198 11.7951 16.4132 11.8217 16.3198 11.8351C16.1998 11.8617 14.3332 13.1017 10.6932 15.5551C10.1598 15.9151 9.67984 16.1017 9.25317 16.0884C8.77317 16.0751 7.8665 15.8217 7.1865 15.5951C6.3465 15.3284 5.69317 15.1817 5.7465 14.7151C5.77317 14.4751 6.1065 14.2351 6.73317 13.9817C10.6265 12.2884 13.2132 11.1684 14.5065 10.6351C18.2132 9.0884 18.9732 8.82174 19.4798 8.82174C19.5865 8.82174 19.8398 8.8484 19.9998 8.98174C20.1332 9.0884 20.1732 9.23507 20.1865 9.34174C20.1732 9.42174 20.1998 9.66174 20.1865 9.8484Z" fill="white"/>
</svg>
