<svg width="150" height="47" viewBox="0 0 150 47" fill="none" xmlns="http://www.w3.org/2000/svg">
<path fill-rule="evenodd" clip-rule="evenodd" d="M23.6524 0.011157C24.7449 0.0223581 26.1354 0.123168 26.7423 0.223978C27.3493 0.324789 28.4418 0.548812 29.1702 0.739232C29.8985 0.91845 31.0683 1.29929 31.7636 1.57932C32.4588 1.87055 33.5072 2.3522 34.081 2.66583C34.6549 2.97946 35.626 3.57312 36.233 3.99877C36.8399 4.42441 37.8331 5.18609 38.4401 5.70134C39.0471 6.2166 39.9189 7.06788 40.3713 7.58313C40.8348 8.09839 41.3866 8.74806 41.5963 9.02809C41.817 9.30812 42.3246 10.0362 42.7219 10.6523C43.1192 11.2683 43.7482 12.3996 44.1124 13.1725C44.4766 13.9454 44.9401 15.0767 45.1498 15.6928C45.3594 16.3088 45.6574 17.3953 45.8229 18.101C45.9774 18.8067 46.1761 19.9156 46.2754 20.5653C46.3637 21.2149 46.4409 22.5255 46.4409 23.4776C46.4409 24.4297 46.3858 25.6394 46.3306 26.1659C46.2644 26.6923 46.1099 27.622 45.9885 28.2381C45.8671 28.8541 45.5471 30.0415 45.2712 30.8703C44.9953 31.6992 44.4987 32.9426 44.1786 33.6146C43.8476 34.2867 43.2406 35.3732 42.8213 36.0229C42.4019 36.6725 41.7508 37.6022 41.3645 38.0951C40.9783 38.5879 40.261 39.4168 39.7754 39.9321C39.2788 40.4361 38.5063 41.1754 38.0539 41.5562C37.6014 41.9483 36.7406 42.5979 36.1557 43.0012C35.5598 43.4156 34.5445 44.0205 33.8934 44.3565C33.2313 44.6814 32.2381 45.1406 31.6863 45.3646C31.1235 45.5887 29.9979 45.9471 29.2033 46.1599C28.3977 46.3727 26.93 46.6416 25.9478 46.776C24.9546 46.8992 23.84 47 23.4648 47C23.0785 47 22.0301 46.9216 21.1142 46.832C20.2093 46.7424 19.0836 46.5968 18.6312 46.4959C18.1787 46.4063 17.329 46.1935 16.7551 46.0367C16.1812 45.8799 15.2101 45.5438 14.6032 45.2974C13.9962 45.051 13.0251 44.603 12.4512 44.2893C11.8774 43.9757 11.0055 43.4604 10.52 43.1468C10.0344 42.822 9.26191 42.2507 8.80945 41.8811C8.35699 41.5114 7.52932 40.761 6.97754 40.2121C6.42576 39.6632 5.58705 38.7111 5.10148 38.0951C4.62695 37.479 3.97585 36.5717 3.66685 36.0789C3.35785 35.586 2.82814 34.6227 2.49707 33.9507C2.15497 33.2786 1.71354 32.2369 1.49283 31.6544C1.27212 31.072 0.974158 30.0863 0.819659 29.4702C0.654124 28.8541 0.400305 27.4428 0.245806 26.3339C0.0250937 24.7657 -0.0300844 24.0488 0.0140581 23.0855C0.0471649 22.4135 0.168557 21.1477 0.289949 20.2852C0.411341 19.4228 0.643089 18.213 0.786552 17.597C0.941051 16.9809 1.22798 16.0288 1.41558 15.4688C1.60319 14.9087 2.05565 13.8558 2.40879 13.1165C2.76193 12.3772 3.4351 11.1899 3.8986 10.4842C4.36209 9.77856 5.15666 8.71445 5.65326 8.13199C6.1609 7.54953 6.98857 6.68705 7.49621 6.2278C8.00385 5.75735 8.77634 5.09648 9.1957 4.76045C9.61505 4.41321 10.2441 3.95396 10.5752 3.74114C10.9062 3.52832 11.5904 3.11387 12.0981 2.82264C12.5947 2.54262 13.5327 2.08337 14.1948 1.81454C14.8459 1.54572 15.8723 1.16488 16.4792 0.985659C17.0862 0.795239 18.0021 0.560014 18.5208 0.459203C19.0395 0.347192 19.9554 0.201576 20.5624 0.111967C21.2576 0.0223574 22.3943 -0.0224465 23.6524 0.011157ZM19.4588 3.3827C18.9733 3.47231 18.1566 3.68513 17.638 3.83075C17.1193 3.98756 16.3468 4.24519 15.9274 4.41321C15.5081 4.57003 14.7025 4.93966 14.1617 5.21969C13.621 5.49972 12.6719 6.07098 12.065 6.47422C11.458 6.88867 10.4869 7.63914 9.91301 8.1544C9.33916 8.66965 8.50045 9.52094 8.05903 10.0362C7.60657 10.5626 6.90029 11.5147 6.4699 12.1644C6.03951 12.8141 5.43255 13.9006 5.10148 14.5727C4.78145 15.2447 4.36209 16.2864 4.16345 16.8689C3.97585 17.4514 3.69996 18.4595 3.55649 19.1091C3.41303 19.7588 3.23646 20.9125 3.17025 21.6854C3.07093 22.7383 3.07093 23.5 3.17025 24.7657C3.23646 25.6842 3.39096 26.9499 3.52339 27.566C3.64478 28.1821 3.93171 29.2686 4.16345 29.9742C4.3952 30.6799 4.83663 31.7888 5.14562 32.4385C5.45462 33.0882 6.05055 34.1411 6.48094 34.7907C6.90029 35.4404 7.63967 36.4149 8.11421 36.975C8.59977 37.535 9.42745 38.3751 9.96819 38.8568C10.52 39.3384 11.3808 40.0217 11.8994 40.3801C12.4181 40.7274 13.2347 41.2426 13.7203 41.5114C14.2059 41.7803 14.9784 42.1499 15.4308 42.3515C15.8833 42.5531 16.8765 42.8892 17.638 43.1132C18.3994 43.3372 19.514 43.606 20.121 43.7069C20.8493 43.8413 21.8756 43.8973 23.1558 43.9085C24.5242 43.9085 25.4401 43.8525 26.3009 43.7069C26.9741 43.5948 28.0887 43.3372 28.7839 43.1356C29.4792 42.934 30.5055 42.5755 31.0462 42.3291C31.587 42.0939 32.514 41.6346 33.0878 41.3098C33.6617 40.985 34.677 40.3129 35.3501 39.8089C36.0233 39.3048 37.0275 38.4087 37.6014 37.8263C38.1753 37.2326 38.9698 36.3029 39.3781 35.7428C39.7754 35.1828 40.2941 34.4323 40.5038 34.0627C40.7245 33.693 41.1218 32.9426 41.3977 32.3825C41.6735 31.8224 42.0708 30.8703 42.2805 30.2543C42.4902 29.6382 42.7881 28.5517 42.9426 27.846C43.0971 27.1404 43.2847 25.953 43.351 25.2138C43.4503 24.2281 43.4503 23.4328 43.362 22.2118C43.2958 21.3046 43.1192 19.994 42.9757 19.3107C42.8323 18.6163 42.5564 17.5634 42.3688 16.9809C42.1702 16.3984 41.7618 15.3903 41.4639 14.7407C41.1549 14.091 40.6693 13.1613 40.3713 12.6685C40.0734 12.1756 39.4112 11.2459 38.9036 10.5962C38.396 9.94658 37.6345 9.09529 37.2152 8.69205C36.7958 8.28881 36.0343 7.63914 35.5157 7.2359C34.997 6.84386 34.1804 6.2614 33.6948 5.95897C33.2092 5.65654 32.3595 5.19729 31.8187 4.93966C31.278 4.68204 30.351 4.3124 29.7771 4.12198C29.2033 3.93156 28.3315 3.67393 27.8459 3.55072C27.3603 3.42751 26.312 3.24829 25.5284 3.14748C24.7339 3.05787 23.6744 2.99066 23.1558 2.99066C22.6371 3.00186 21.7984 3.05787 21.2797 3.10267C20.761 3.15868 19.9444 3.28189 19.4588 3.3827ZM141.469 7.48233C141.91 7.50473 142.164 7.58314 142.341 7.73995C142.484 7.86317 142.661 8.132 142.738 8.32241C142.859 8.60244 142.892 9.37532 142.892 11.4363C142.892 13.7774 142.914 14.1918 143.058 14.2366C143.146 14.2702 144.492 14.2926 146.037 14.2926C148.796 14.2926 148.852 14.2926 149.138 14.5391C149.304 14.6959 149.458 14.9983 149.525 15.3007C149.598 15.6368 149.595 15.9243 149.514 16.1632C149.458 16.3648 149.271 16.6337 149.105 16.7569C148.807 16.9809 148.642 16.9921 142.892 16.9809V23.388C142.892 29.1342 142.914 29.8622 143.08 30.3663C143.201 30.7359 143.444 31.1056 143.797 31.4528C144.195 31.856 144.481 32.0353 144.967 32.1697C145.386 32.2929 145.784 32.3265 146.181 32.2817C146.49 32.2481 146.942 32.1137 147.174 31.9905C147.395 31.8672 147.759 31.6656 147.969 31.5424C148.178 31.4192 148.476 31.3184 148.631 31.3184C148.785 31.3184 149.072 31.4192 149.271 31.5424C149.459 31.6656 149.712 31.9008 149.812 32.0689C149.911 32.2481 149.999 32.5617 149.999 32.7857C150.01 33.0434 149.9 33.3458 149.712 33.6482C149.481 33.9955 149.216 34.2083 148.719 34.4547C148.333 34.6339 147.704 34.8691 147.307 34.97C146.755 35.1156 146.313 35.138 145.43 35.0932C144.68 35.0484 144.04 34.9476 143.61 34.7907C143.245 34.6675 142.727 34.4211 142.451 34.2531C142.175 34.0963 141.678 33.6818 141.347 33.3346C140.972 32.965 140.597 32.4273 140.387 31.9905C140.2 31.5872 139.99 30.9599 139.924 30.5903C139.846 30.1535 139.802 27.6556 139.802 23.5C139.802 17.8994 139.78 17.0817 139.637 17.0369C139.549 17.0033 138.842 16.9809 138.07 16.9809C136.812 16.9809 136.635 16.9585 136.414 16.7569C136.271 16.6337 136.105 16.3984 136.039 16.2192C135.973 16.0512 135.962 15.6928 135.995 15.4127C136.039 15.1327 136.127 14.8303 136.194 14.7295C136.271 14.6287 136.436 14.4943 136.58 14.427C136.723 14.3486 137.363 14.2926 138.18 14.2926C139.118 14.2926 139.582 14.2478 139.67 14.147C139.769 14.0462 139.802 13.2621 139.813 11.2123C139.813 8.75926 139.835 8.37842 140.001 8.14319C140.1 7.99758 140.332 7.78476 140.52 7.66154C140.762 7.51593 141.016 7.45993 141.469 7.48233ZM84.7346 7.42632C84.9442 7.45993 85.2201 7.54953 85.3415 7.62794C85.4629 7.70635 85.6505 7.90797 85.7609 8.06479C85.9374 8.33362 85.9485 9.03929 85.9485 18.7395C85.9485 27.7228 85.9264 29.235 85.7719 29.8622C85.6836 30.2655 85.4188 30.9375 85.1981 31.3744C84.9442 31.8784 84.5138 32.4497 84.0283 32.9538C83.4765 33.5026 83.002 33.861 82.4171 34.1523C81.9646 34.3875 81.2473 34.6451 80.8169 34.7347C80.3976 34.8243 79.5699 34.9028 78.996 34.9028C78.2897 34.9028 77.6607 34.8355 77.0648 34.6787C76.5792 34.5555 75.8619 34.2643 75.4646 34.0515C75.0674 33.8274 74.5487 33.4914 74.3059 33.2898C74.0741 33.0994 73.71 32.7633 73.5113 32.5505C73.3127 32.3377 73.0037 31.8784 72.8271 31.5424C72.6505 31.2064 72.4188 30.5791 72.3084 30.1423C72.1539 29.4702 72.1208 28.6413 72.1098 24.3177C72.0988 19.4004 72.1098 19.2547 72.3416 18.4931C72.474 18.0562 72.7719 17.3841 73.0037 16.9921C73.2354 16.6001 73.7541 15.9616 74.1735 15.5696C74.6039 15.1439 75.2329 14.6959 75.6853 14.4606C76.1157 14.2478 76.7889 13.9902 77.2083 13.8894C77.738 13.755 78.2566 13.7214 79.0512 13.7662C79.8789 13.811 80.3534 13.9006 80.9273 14.1134C81.3577 14.2814 81.9646 14.5839 82.2846 14.7967C82.5936 15.0095 82.8806 15.1887 82.9137 15.1887C82.9468 15.1887 82.9689 13.6206 82.9689 8.24401L83.2779 7.89677C83.4434 7.70635 83.7524 7.51593 83.9621 7.45992C84.1717 7.40392 84.5249 7.39272 84.7346 7.42632ZM76.6896 17.2609C76.4247 17.4402 76.0826 17.7762 75.9281 17.989C75.7626 18.2018 75.5198 18.6611 75.3874 18.9971C75.1446 19.602 75.1336 19.7028 75.1336 24.3513C75.1336 28.7533 75.1446 29.123 75.3432 29.6718C75.4646 29.9966 75.7957 30.5231 76.0937 30.8591C76.4468 31.2512 76.8662 31.576 77.3407 31.8112C77.9697 32.1137 78.1684 32.1585 78.996 32.1585C79.7685 32.1585 80.0444 32.1137 80.541 31.8784C80.8721 31.7216 81.3908 31.3632 81.6777 31.0944C81.9756 30.8143 82.3398 30.3103 82.5054 29.9742C82.7592 29.4366 82.8033 29.1566 82.8695 27.734C82.9137 26.8379 82.9357 24.6985 82.9247 22.9735C82.9026 20.2852 82.8695 19.7476 82.704 19.2211C82.5936 18.8851 82.384 18.4259 82.2515 18.213C82.1081 18.0002 81.8543 17.6866 81.6887 17.5298C81.5122 17.3729 81.2363 17.1601 81.0707 17.0593C80.8942 16.9585 80.4748 16.7905 80.1327 16.7009C79.7796 16.6113 79.2167 16.5329 78.8857 16.5329C78.5546 16.5329 78.0249 16.6225 77.7159 16.7345C77.4179 16.8353 76.9544 17.0817 76.6896 17.2609ZM93.541 7.47112C93.7286 7.47112 94.0817 7.54953 94.3024 7.66154C94.5232 7.76235 94.799 8.00878 94.9094 8.188C95.0639 8.45683 95.108 8.77046 95.108 9.81217C95.108 10.8987 95.0749 11.1563 94.8873 11.4699C94.7659 11.6604 94.5232 11.9068 94.3355 11.9964C94.159 12.086 93.7838 12.1644 93.5079 12.1644C93.232 12.1644 92.8788 12.0972 92.7133 12.0076C92.5367 11.9292 92.305 11.7164 92.1836 11.5371C92.0291 11.2907 91.9629 10.9659 91.9298 10.2042C91.8967 9.64415 91.9077 9.00568 91.9519 8.78166C91.985 8.54643 92.1726 8.188 92.3491 7.97517C92.5367 7.76235 92.7906 7.56074 92.934 7.53833C93.0665 7.51593 93.3423 7.48232 93.541 7.47112ZM93.3203 13.5197C93.3865 13.5085 93.6624 13.5646 93.9272 13.6206C94.1811 13.6878 94.5121 13.867 94.9425 14.315V25.3594C94.9425 35.6196 94.9315 36.4709 94.7439 37.143C94.6335 37.5462 94.4128 38.1735 94.2473 38.5431C94.0707 38.9128 93.7838 39.4392 93.5962 39.7192C93.4086 39.9993 93.0223 40.4697 92.7243 40.7722C92.4264 41.0634 91.8856 41.5226 91.5215 41.7691C91.1573 42.0155 90.5614 42.3403 90.1972 42.4859C89.833 42.6315 89.3695 42.7436 89.1819 42.7436C88.9833 42.7436 88.6853 42.6652 88.5198 42.5643C88.3432 42.4635 88.1115 42.2507 88.0011 42.0939C87.8797 41.9259 87.7583 41.5674 87.7363 41.2874C87.7142 40.9178 87.7583 40.6825 87.9239 40.4249C88.0784 40.1897 88.4315 39.9097 88.906 39.6632C89.3143 39.4504 89.8882 39.036 90.1862 38.7447C90.4841 38.4535 90.8593 38.0055 91.0249 37.759C91.2014 37.5126 91.4553 37.031 91.8525 36.0789L91.9629 14.3038L92.2167 14.0462C92.3491 13.9006 92.625 13.7326 92.8237 13.6542C93.0113 13.587 93.243 13.5197 93.3203 13.5197ZM60.401 13.6766C61.008 13.699 61.7805 13.7998 62.1115 13.8894C62.4426 13.9902 63.0937 14.2478 63.5462 14.4831C64.109 14.7631 64.5945 15.1215 65.0911 15.6256C65.4884 16.0288 65.963 16.6673 66.1616 17.0369C66.3492 17.4065 66.592 17.989 66.6913 18.325C66.8017 18.7059 66.8899 19.5236 66.9231 20.4533C66.9562 21.2822 66.9341 23.7016 66.8789 25.8298C66.7906 29.2238 66.7465 29.7726 66.5589 30.3103C66.4375 30.6463 66.1947 31.2064 66.0292 31.5424C65.8526 31.9008 65.3891 32.4945 64.9366 32.9426C64.5062 33.3794 63.8552 33.8834 63.491 34.0851C63.1268 34.2867 62.4316 34.5443 61.946 34.6787C61.339 34.8355 60.721 34.9028 59.9596 34.9028C59.1871 34.9028 58.6022 34.8355 58.0283 34.6675C57.5759 34.5443 56.8255 34.2419 56.373 33.9955C55.9205 33.749 55.2584 33.2562 54.9053 32.909C54.5521 32.5617 54.1328 32.0465 53.9672 31.7664C53.8127 31.4864 53.592 31.0272 53.4817 30.7359C53.3713 30.4335 53.2278 29.8286 53.1727 29.3918C53.0844 28.8205 53.0844 28.3389 53.1727 27.79C53.2389 27.2972 53.4486 26.6699 53.7134 26.1098C54.0003 25.5162 54.3314 25.0345 54.6845 24.6985C54.9715 24.4185 55.435 24.06 55.7109 23.9032C55.9868 23.7352 56.6268 23.4776 57.1455 23.332C57.6642 23.1751 59.1981 22.7943 60.5665 22.4807C61.935 22.1558 63.193 21.8422 63.3585 21.7638C63.5241 21.6854 63.7227 21.4838 63.7889 21.2934C63.8552 21.1029 63.8883 20.6213 63.8662 20.1732C63.822 19.602 63.7227 19.1875 63.4689 18.6611C63.2592 18.213 62.9392 17.765 62.6523 17.5074C62.3874 17.2609 61.9239 16.9361 61.6149 16.7793C61.1294 16.5105 60.9417 16.4769 60.0148 16.4769C59.0988 16.4769 58.8891 16.5105 58.3594 16.7793C58.0283 16.9361 57.5317 17.3169 57.2558 17.6194C56.991 17.9106 56.6599 18.4147 56.5165 18.7171C56.384 19.0307 56.2406 19.5796 56.2075 19.9492C56.1633 20.3188 56.075 20.7669 56.0088 20.9461C55.9316 21.1253 55.755 21.327 55.6005 21.4054C55.446 21.4838 55.0487 21.5846 54.7177 21.6182C54.199 21.6854 54.0555 21.663 53.7244 21.439C53.4927 21.2821 53.283 21.0021 53.1837 20.7333C53.0402 20.3525 53.0402 20.1396 53.1506 19.3668C53.2278 18.8515 53.3823 18.1682 53.5148 17.8546C53.6362 17.5298 53.9562 16.9361 54.2211 16.5329C54.4749 16.1296 54.9825 15.5584 55.3356 15.2559C55.6998 14.9535 56.3509 14.5391 56.7924 14.3262C57.2227 14.1246 57.9732 13.8782 58.4477 13.7886C58.9995 13.6878 59.6837 13.643 60.401 13.6766ZM57.7525 26.0202C57.5097 26.1547 57.1345 26.4459 56.9137 26.6811C56.7041 26.9275 56.4392 27.3756 56.3178 27.678C56.1744 28.0813 56.1302 28.4061 56.1744 28.8541C56.2075 29.1902 56.362 29.7278 56.5054 30.0303C56.6599 30.3439 57.0572 30.8367 57.3772 31.128C57.7193 31.4416 58.227 31.7664 58.5801 31.8896C58.9553 32.0353 59.463 32.1137 59.9044 32.1137C60.3017 32.1137 60.7762 32.0801 60.9528 32.0353C61.1404 31.9905 61.4715 31.8672 61.7032 31.7552C61.9239 31.632 62.3433 31.3296 62.6192 31.072C62.9061 30.8031 63.2482 30.3551 63.3917 30.0639C63.5572 29.739 63.7007 29.1566 63.7669 28.6077C63.822 28.0925 63.8772 26.9611 63.8772 26.0874C63.8772 24.6313 63.8552 24.4857 63.6896 24.4969C63.5793 24.5081 62.2991 24.7993 60.8424 25.1577C59.3857 25.505 57.9952 25.897 57.7525 26.0202ZM101.95 13.6318C102.16 13.6318 102.513 13.699 102.723 13.7774C102.932 13.8558 103.208 14.0574 103.33 14.2254C103.539 14.5279 103.55 14.7519 103.605 21.887C103.661 28.6525 103.683 29.291 103.859 29.7502C103.97 30.0303 104.201 30.4559 104.367 30.7023C104.544 30.9487 104.875 31.2848 105.106 31.4528C105.349 31.6208 105.791 31.8672 106.088 32.0017C106.497 32.1809 106.839 32.2481 107.413 32.2369C107.887 32.2369 108.417 32.1473 108.792 32.0017C109.145 31.8784 109.653 31.5536 110.006 31.2288C110.425 30.8479 110.712 30.4559 111.275 29.2462L111.386 14.427L111.661 14.1246C111.816 13.9678 112.136 13.7774 112.379 13.7214C112.611 13.6542 112.964 13.6206 113.151 13.6542C113.328 13.6766 113.626 13.7998 113.802 13.9118C113.979 14.035 114.189 14.2926 114.277 14.4942C114.387 14.7743 114.42 16.2864 114.42 21.8534C114.42 27.622 114.387 29.0109 114.255 29.7278C114.167 30.1983 113.913 30.9711 113.692 31.4304C113.438 31.9569 113.063 32.5169 112.666 32.9201C112.324 33.2786 111.827 33.7154 111.551 33.8946C111.275 34.0739 110.712 34.3539 110.282 34.5107C109.863 34.6787 108.991 34.8804 108.351 34.9588C107.523 35.0708 106.971 35.082 106.42 35.0148C106 34.9588 105.448 34.8468 105.206 34.7795C104.963 34.7123 104.422 34.4771 103.992 34.2531C103.473 33.9843 102.943 33.5698 102.392 33.0098C101.928 32.5281 101.409 31.8672 101.211 31.4864C101.023 31.1168 100.78 30.4895 100.692 30.0863C100.549 29.4702 100.516 28.2381 100.516 21.999C100.516 15.6704 100.538 14.5839 100.681 14.2926C100.769 14.1134 101.012 13.8782 101.211 13.7886C101.398 13.699 101.74 13.6318 101.95 13.6318ZM126.041 13.6318C126.571 13.6318 127.365 13.699 127.807 13.7886C128.237 13.8782 129.021 14.1694 129.539 14.427C130.212 14.7631 130.676 15.0991 131.172 15.6032C131.658 16.096 131.978 16.5665 132.265 17.1825C132.596 17.8994 132.673 18.2018 132.717 18.9971C132.762 19.7924 132.729 20.0164 132.563 20.3188C132.431 20.5429 132.188 20.7445 131.945 20.8453C131.713 20.9349 131.382 21.0133 131.195 21.0133C131.018 21.0133 130.698 20.9349 130.51 20.8453C130.312 20.7557 130.058 20.5205 129.959 20.3188C129.859 20.1172 129.738 19.6692 129.705 19.3331C129.672 18.9523 129.517 18.4931 129.318 18.1346C129.131 17.7986 128.778 17.3841 128.524 17.2049C128.259 17.0145 127.785 16.7569 127.476 16.6449C127.111 16.4993 126.615 16.4208 126.151 16.4208C125.732 16.4208 125.158 16.4881 124.849 16.5777C124.551 16.6673 124.077 16.9025 123.801 17.1153C123.481 17.3505 123.194 17.709 122.995 18.101C122.785 18.5379 122.697 18.8851 122.697 19.2771C122.697 19.5908 122.796 20.0388 122.896 20.2852C123.006 20.5317 123.271 20.9125 123.481 21.1253C123.69 21.3382 124.231 21.7078 124.684 21.9318C125.136 22.167 126.107 22.5367 126.835 22.7607C127.564 22.9735 128.579 23.332 129.098 23.556C129.616 23.78 130.29 24.1272 130.588 24.3289C130.897 24.5193 131.305 24.8777 131.515 25.1129C131.724 25.3594 132.044 25.7738 132.21 26.0538C132.386 26.3339 132.629 26.9051 132.762 27.342C132.96 28.0028 132.982 28.3165 132.938 29.3582C132.894 30.2319 132.817 30.7695 132.651 31.2064C132.519 31.5424 132.221 32.1025 131.989 32.4385C131.757 32.7745 131.316 33.245 131.018 33.469C130.72 33.693 130.102 34.0403 129.65 34.2307C129.197 34.4211 128.524 34.6563 128.16 34.7347C127.796 34.8243 127.023 34.9028 126.449 34.9028C125.776 34.9028 125.103 34.8243 124.573 34.6899C124.121 34.5779 123.425 34.3203 123.028 34.1299C122.631 33.9282 122.002 33.525 121.627 33.2114C121.218 32.8865 120.744 32.3713 120.49 31.9681C120.247 31.576 119.96 31.016 119.861 30.7023C119.751 30.3663 119.673 29.7614 119.673 29.2126C119.662 28.3165 119.673 28.2605 119.993 27.9692C120.181 27.8012 120.523 27.622 120.766 27.5772C121.042 27.5212 121.373 27.5436 121.649 27.622C121.892 27.7004 122.201 27.8684 122.333 28.0028C122.509 28.1709 122.598 28.4173 122.653 28.9101C122.686 29.2798 122.807 29.7838 122.907 30.0303C123.017 30.2767 123.282 30.6687 123.503 30.9039C123.723 31.128 124.143 31.4416 124.441 31.5872C124.728 31.7328 125.235 31.912 125.566 31.9905C125.931 32.0801 126.416 32.1025 126.78 32.0577C127.111 32.0241 127.652 31.9008 127.983 31.7888C128.314 31.688 128.756 31.4416 128.976 31.2512C129.197 31.0608 129.495 30.6575 129.639 30.3551C129.837 29.9518 129.903 29.627 129.903 29.1342C129.892 28.7421 129.804 28.2493 129.694 27.9692C129.572 27.678 129.252 27.2636 128.932 26.9723C128.634 26.7035 128.038 26.3115 127.608 26.1098C127.189 25.9082 126.317 25.5946 125.677 25.4266C125.037 25.2586 124.143 24.9673 123.69 24.7769C123.238 24.5753 122.498 24.172 122.046 23.8696C121.594 23.556 121.031 23.0855 120.799 22.8055C120.556 22.5255 120.247 22.055 120.104 21.7414C119.96 21.439 119.795 20.8789 119.729 20.5093C119.662 20.1396 119.607 19.5572 119.607 19.2211C119.607 18.8851 119.684 18.3138 119.773 17.9666C119.861 17.6082 120.06 17.0705 120.214 16.7569C120.369 16.4545 120.7 15.9616 120.965 15.6816C121.218 15.4015 121.704 14.9871 122.035 14.7631C122.366 14.5391 122.929 14.2478 123.282 14.1022C123.624 13.9566 124.176 13.7998 124.496 13.7438C124.805 13.6878 125.5 13.643 126.041 13.6318ZM26.6872 9.25211L26.8637 9.62175C26.9741 9.81217 27.9783 12.0972 29.115 14.6847C30.2517 17.2721 32.4257 22.223 33.9596 25.6954C35.4826 29.1566 36.7185 32.0353 36.7075 32.1025C36.6854 32.1585 36.1337 32.7633 34.2466 34.7011L33.8382 34.3763C33.6175 34.2083 32.6354 33.4354 31.6532 32.6625C30.671 31.8896 29.1702 30.7471 28.3094 30.1087C27.4486 29.4702 25.8043 28.3053 24.6456 27.5212C23.4979 26.7259 21.6108 25.4938 20.452 24.7657C19.3043 24.0376 17.8145 23.1639 17.1413 22.8279C16.4792 22.4919 15.3536 21.9878 14.6583 21.7078C13.9631 21.439 13.014 21.1141 12.5616 21.0021C12.1091 20.8789 11.5904 20.7893 11.4028 20.7893C11.2263 20.7893 10.9614 20.8677 10.829 20.9573C10.6524 21.0693 10.5752 21.2373 10.5752 21.495C10.5752 21.6854 10.6524 22.1334 10.7517 22.4695C10.851 22.8055 11.1821 23.5896 11.4911 24.2057C11.8001 24.8217 12.4954 25.9866 13.014 26.7819C13.5437 27.5772 14.0514 28.3165 14.1507 28.4061C14.25 28.4957 14.3493 28.5517 14.3714 28.5181C14.3935 28.4845 14.7908 27.6332 15.2432 26.6139C15.7067 25.5946 16.1261 24.7545 16.1702 24.7321C16.2144 24.7097 16.3468 24.9113 16.4571 25.1802C16.5785 25.449 16.8875 26.1434 17.1524 26.7259C17.4172 27.3084 17.638 27.958 17.638 28.1597C17.638 28.3501 17.3621 29.1566 17.02 29.9518C16.6889 30.7359 16.3247 31.4416 16.2254 31.52C16.093 31.6096 15.5743 31.6544 14.5259 31.6544C13.6872 31.6544 12.8816 31.5984 12.7271 31.5424C12.5726 31.4864 12.2305 31.1392 11.9546 30.7919C11.6787 30.4335 11.0828 29.5822 10.6414 28.9101C10.1889 28.2381 9.52677 27.118 9.15156 26.4459C8.78738 25.7738 8.35699 24.8665 8.20249 24.4297C8.03696 23.9928 7.83832 23.276 7.75003 22.8391C7.66175 22.3911 7.59553 21.7302 7.59553 21.383C7.59553 21.0245 7.66175 20.4869 7.75003 20.1732C7.83832 19.8708 8.07006 19.4004 8.24663 19.1427C8.43424 18.8739 8.82049 18.4931 9.11845 18.2802C9.40538 18.0674 9.93509 17.8098 10.2993 17.709C10.7738 17.5634 11.16 17.541 11.6787 17.5858C12.076 17.6306 12.694 17.7202 13.0582 17.7762C13.4223 17.8322 14.1176 18.0226 14.6032 18.1794C15.0887 18.3362 16.1371 18.7619 16.9206 19.1203C17.969 19.602 18.3773 19.7364 18.4325 19.6356C18.4767 19.5684 18.5208 19.4676 18.5208 19.4228C18.5208 19.3668 19.4368 17.1825 20.5734 14.5503C21.6991 11.9068 22.6923 9.64415 22.7806 9.50973C22.9351 9.26331 22.9902 9.25211 26.6872 9.25211ZM22.9019 16.7121C21.8756 19.0531 21.059 21.0133 21.0811 21.0917C21.0921 21.1701 23.4979 22.8615 26.4113 24.8553C29.3247 26.8491 31.7194 28.4509 31.7415 28.4173C31.7525 28.3837 30.2737 24.9785 28.4418 20.8453C26.6099 16.7121 25.0318 13.1501 24.9325 12.9037L24.7559 12.478L22.9019 16.7121Z" fill="white"/>
</svg>
