<svg width="38" height="20" viewBox="0 0 38 20" fill="none" xmlns="http://www.w3.org/2000/svg">
<path d="M37.8145 2.28188C37.7254 2.15436 37.1613 1.61745 36.5824 1.09396C35.9961 0.57047 35.4246 0.114094 35.3133 0.0738253C35.1945 0.0335568 34.9867 -1.31715e-07 34.8457 -1.37879e-07C34.7047 -1.44043e-07 34.4969 0.0335569 34.3855 0.0671139C34.2668 0.107382 30.7637 3.22819 26.5926 7L19 13.8591C7.23633 3.22819 3.7332 0.107381 3.61445 0.0671126C3.50312 0.0335555 3.29531 -1.51699e-06 3.1543 -1.52315e-06C3.01328 -1.52932e-06 2.80547 0.0335554 2.69414 0.0738239C2.57539 0.114092 2.00391 0.570468 1.41758 1.09396C0.838673 1.61745 0.274609 2.16107 0.178123 2.2953C0.0445289 2.48322 -1.15586e-07 2.64429 -1.27027e-07 2.90604L-1.42282e-07 3.25503C14.1758 16.0805 18.384 19.8523 18.5027 19.906C18.6141 19.9597 18.8367 20 19 20C19.1633 20 19.3859 19.9597 19.4973 19.906C19.616 19.8523 23.8242 16.0805 28.8488 11.5302L38 3.25503C37.9926 2.61745 37.948 2.45638 37.8145 2.28188Z" fill="white"/>
</svg>
