<svg width="139" height="49" viewBox="0 0 139 49" fill="none" xmlns="http://www.w3.org/2000/svg">
<path d="M21.4944 23.8295H27.472V32.2187C25.6069 32.8175 23.2519 33.1459 20.8039 33.1459C10.8826 33.1459 5.05153 24.6565 5.05153 16.3656C5.05153 8.23391 10.3259 2.53003 17.6842 2.53003C22.3405 2.53003 25.0499 4.10623 27.4738 6.30182V9.03889L32.0187 4.49751C29.144 2.55411 24.9813 0.707153 19.0315 0.707153C5.97018 0.707153 0 10.0442 0 17.7174C0 28.6396 7.96153 35.2191 17.9665 35.2191C22.8177 35.2191 27.125 34.4792 32.1005 33.0958V24.4284C32.1005 23.9852 32.2954 23.6811 32.5867 23.4141L34.1568 21.8453H23.4951L21.4944 23.8295Z" fill="white"/>
<path d="M48.2723 12.4288C40.7543 12.4288 36.0962 17.918 36.0962 23.7445C36.0962 28.7736 39.8489 34.7445 47.452 34.7445C54.7659 34.7445 59.2532 29.2446 59.2532 23.3161C59.2532 17.7938 54.8679 12.4309 48.2723 12.4309V12.4288ZM47.0249 14.0292C52.3254 14.0292 54.6859 20.9294 54.6859 25.8509C54.6859 33.1702 49.1908 33.3148 48.5338 33.3148C46.0192 33.3148 44.2616 31.7962 42.946 29.8044C41.788 27.9688 40.6559 24.5584 40.6559 21.2261C40.6559 17.9067 41.7433 16.286 43.4546 15.0936C44.8539 14.1998 46.1641 14.0292 47.0231 14.0292H47.0249Z" fill="white"/>
<path d="M97.4167 12.427C90.8506 12.427 87.2985 16.5809 87.2985 21.2187C87.2985 24.7494 89.8298 28.7326 95.0521 28.7326H96.3733C96.3733 28.7326 96.0135 29.6061 96.0117 30.4498C96.0117 31.6943 96.4589 32.3932 97.4089 33.4687C88.423 34.0157 84.8115 37.6374 84.8115 41.5298C84.8115 44.9383 88.0779 48.2929 94.9425 48.2929C103.069 48.2929 107.278 43.7846 107.278 39.3603C107.278 36.2412 105.723 34.5315 101.785 31.583C100.627 30.6836 100.402 30.1108 100.402 29.4377C100.402 28.4734 100.979 27.8353 101.191 27.5944C101.564 27.2013 102.21 26.7525 102.451 26.5374C103.774 25.4173 105.643 23.7597 105.643 20.4513C105.643 18.1815 104.698 16.2289 102.546 14.4005H105.174L107.148 12.4274H97.4167V12.427ZM95.6054 13.9031C96.7969 13.9031 97.7914 14.3241 98.8418 15.1975C100.007 16.2471 101.869 19.0676 101.869 22.5575C101.869 26.3238 98.9403 27.3548 97.3554 27.3548C96.5797 27.3548 95.6502 27.1379 94.8631 26.6001C93.1149 25.4673 91.3795 22.4518 91.3795 18.8636C91.3795 15.6258 93.3096 13.9031 95.6054 13.9031ZM98.2054 34.8985C98.7063 34.8985 99.0666 34.9394 99.0666 34.9394C99.0666 34.9394 100.249 35.7832 101.075 36.4135C102.997 37.9322 104.196 39.0931 104.196 41.1609C104.196 44.0037 101.557 46.2326 97.2828 46.2326C92.5915 46.2326 89.0059 44.05 89.0059 40.4861C89.0059 37.5337 91.463 34.9929 98.2054 34.8985Z" fill="white"/>
<path d="M108.57 34.0933H117.584L118.957 32.7213L116.372 32.3986C115.676 32.3133 115.262 31.7125 115.262 31.1302V3.9245C115.262 3.38858 115.511 3.11413 115.693 2.93963L117.319 1.31519H109.632L107.631 3.31422H110.619V31.4953C110.619 31.8958 110.493 32.1684 110.222 32.4484L108.57 34.0933Z" fill="white"/>
<path d="M129.797 12.4288C124.764 12.4288 119.417 16.2619 119.417 23.1435C119.417 28.827 123.253 34.7445 130.421 34.7445C132.208 34.7445 133.68 34.5148 135.058 33.8824C136.538 33.2019 137.961 32.0966 139 30.7077C137.039 31.6961 135.439 32.3451 133.314 32.3451C129.275 32.3451 125.382 29.4337 124.02 24.082L138.286 18.3204C137.462 15.3849 135.138 12.4288 129.799 12.4288H129.797ZM128.865 14.0032C131.566 14.0032 133.518 16.2229 133.518 17.9605C133.518 18.5224 133.165 18.8191 132.467 19.0935L123.699 22.6372C123.699 22.6372 123.461 21.5339 123.461 20.3415C123.461 15.3402 127.08 14.0032 128.865 14.0032Z" fill="white"/>
<path d="M73.7824 12.4288C66.2644 12.4288 61.6063 17.918 61.6063 23.7445C61.6063 28.7736 65.359 34.7445 72.9622 34.7445C80.276 34.7445 84.7634 29.2446 84.7634 23.3161C84.7634 17.7938 80.3781 12.4309 73.7824 12.4309V12.4288ZM72.5352 14.0292C77.8356 14.0292 80.196 20.9294 80.196 25.8509C80.196 33.1702 74.7009 33.3148 74.0439 33.3148C71.5293 33.3148 69.7718 31.7962 68.4562 29.8044C67.2982 27.9688 66.1661 24.5584 66.1661 21.2261C66.1661 17.9067 67.2534 16.286 68.9647 15.0936C70.364 14.1998 71.6742 14.0292 72.5333 14.0292H72.5352Z" fill="white"/>
</svg>
