<svg width="155" height="34" viewBox="0 0 155 34" fill="none" xmlns="http://www.w3.org/2000/svg">
<g clip-path="url(#clip0_60_215)">
<path d="M48.6903 8.19371C48.6267 8.13004 48.5084 8.04363 48.3356 7.93448C48.1719 7.82533 47.9672 7.72073 47.7216 7.62068C47.4851 7.52063 47.2259 7.43422 46.9439 7.36145C46.662 7.27959 46.3755 7.23866 46.0844 7.23866C45.575 7.23866 45.1885 7.33416 44.9247 7.52517C44.67 7.71618 44.5427 7.98451 44.5427 8.33015C44.5427 8.59393 44.6245 8.80313 44.7882 8.95776C44.952 9.11239 45.1975 9.24428 45.525 9.35343C45.8524 9.46258 46.2618 9.58082 46.7529 9.70816C47.3896 9.86279 47.9399 10.0538 48.4038 10.2812C48.8768 10.4995 49.2361 10.7906 49.4817 11.1544C49.7364 11.5091 49.8637 11.9821 49.8637 12.5733C49.8637 13.0918 49.7682 13.5375 49.5772 13.9104C49.3862 14.2743 49.1224 14.5699 48.7858 14.7973C48.4493 15.0247 48.0673 15.1929 47.6398 15.3021C47.2123 15.4021 46.7575 15.4522 46.2754 15.4522C45.7933 15.4522 45.3112 15.4021 44.8292 15.3021C44.3471 15.202 43.8832 15.061 43.4375 14.8791C42.9918 14.6881 42.5825 14.4607 42.2096 14.1969L43.0418 12.5733C43.1237 12.6552 43.2692 12.7644 43.4784 12.9008C43.6876 13.0281 43.9423 13.16 44.2425 13.2965C44.5427 13.4238 44.8701 13.5329 45.2248 13.6239C45.5796 13.7149 45.9389 13.7603 46.3027 13.7603C46.8121 13.7603 47.1986 13.6739 47.4624 13.5011C47.7262 13.3283 47.8581 13.0827 47.8581 12.7644C47.8581 12.4733 47.7535 12.2459 47.5443 12.0822C47.3351 11.9184 47.044 11.7775 46.6711 11.6592C46.2981 11.5319 45.857 11.3954 45.3476 11.2499C44.7382 11.0771 44.2288 10.8861 43.8195 10.6769C43.4102 10.4586 43.1055 10.1857 42.9054 9.85824C42.7053 9.5308 42.6052 9.12149 42.6052 8.63031C42.6052 7.96632 42.7599 7.41148 43.0691 6.96578C43.3875 6.51099 43.815 6.1699 44.3516 5.9425C44.8883 5.70601 45.4841 5.58777 46.139 5.58777C46.5938 5.58777 47.0213 5.6378 47.4215 5.73785C47.8308 5.8379 48.2128 5.96979 48.5675 6.13352C48.9223 6.29724 49.2406 6.47461 49.5226 6.66562L48.6903 8.19371Z" fill="white"/>
<path d="M55.9663 15.4112C55.2568 15.4112 54.611 15.2748 54.0289 15.0019C53.4558 14.729 52.9601 14.3607 52.5417 13.8968C52.1324 13.4238 51.814 12.8962 51.5866 12.3141C51.3592 11.7229 51.2455 11.118 51.2455 10.4995C51.2455 9.8537 51.3638 9.23973 51.6003 8.6576C51.8459 8.06637 52.1779 7.54336 52.5963 7.08858C53.0238 6.62469 53.524 6.26086 54.0971 5.99708C54.6792 5.72421 55.3159 5.58777 56.0072 5.58777C56.7076 5.58777 57.3443 5.72875 57.9173 6.01072C58.4994 6.29269 58.9952 6.67017 59.4045 7.14315C59.8138 7.61613 60.1321 8.14369 60.3595 8.72582C60.5869 9.30795 60.7006 9.90827 60.7006 10.5268C60.7006 11.1635 60.5824 11.7775 60.3459 12.3687C60.1094 12.9508 59.7774 13.4738 59.3499 13.9377C58.9315 14.3925 58.4312 14.7518 57.8491 15.0156C57.2761 15.2793 56.6484 15.4112 55.9663 15.4112ZM53.1557 10.4995C53.1557 10.9179 53.2193 11.3227 53.3467 11.7138C53.474 12.1049 53.6559 12.4551 53.8924 12.7644C54.138 13.0645 54.4336 13.3056 54.7793 13.4875C55.134 13.6603 55.5342 13.7467 55.9799 13.7467C56.4347 13.7467 56.8395 13.6557 57.1942 13.4738C57.5489 13.2828 57.8445 13.0327 58.081 12.7234C58.3175 12.4051 58.4949 12.0549 58.6131 11.6729C58.7405 11.2817 58.8041 10.8906 58.8041 10.4995C58.8041 10.0811 58.7359 9.68088 58.5995 9.29885C58.4722 8.90773 58.2857 8.56209 58.0401 8.26193C57.8036 7.95268 57.508 7.71164 57.1533 7.53882C56.8076 7.3569 56.4165 7.26594 55.9799 7.26594C55.516 7.26594 55.1067 7.36145 54.752 7.55246C54.4063 7.73438 54.1153 7.97996 53.8788 8.28922C53.6423 8.59848 53.4604 8.94412 53.333 9.32614C53.2148 9.70816 53.1557 10.0993 53.1557 10.4995Z" fill="white"/>
<path d="M62.6907 15.343V5.65599H69.1987V7.30687H64.5735V9.80367H68.421V11.3318H64.5735V15.343H62.6907Z" fill="white"/>
<path d="M78.3157 7.30687H75.2186V15.343H73.3494V7.30687H70.2523V5.65599H78.3157V7.30687Z" fill="white"/>
<path d="M80.064 15.343V5.65599H81.9468V15.343H80.064Z" fill="white"/>
<path d="M86.3965 9.12148V15.343H84.5137V5.65599H86.0145L91.0217 12.0412V5.66963H92.9045V15.343H91.3355L86.3965 9.12148Z" fill="white"/>
<path d="M102.71 7.30687H99.6131V15.343H97.7439V7.30687H94.6468V5.65599H102.71V7.30687Z" fill="white"/>
<path d="M111.185 13.6921V15.343H104.459V5.65599H111.062V7.30687H106.341V9.63995H110.421V11.168H106.341V13.6921H111.185Z" fill="white"/>
<path d="M113.198 15.343V5.65599H117.483C117.928 5.65599 118.338 5.74694 118.711 5.92886C119.093 6.11078 119.42 6.35636 119.693 6.66562C119.975 6.97488 120.189 7.32052 120.334 7.70254C120.489 8.08456 120.566 8.47568 120.566 8.8759C120.566 9.28521 120.493 9.68088 120.348 10.0629C120.211 10.4358 120.011 10.7633 119.747 11.0452C119.484 11.3272 119.174 11.5455 118.82 11.7001L121.03 15.343H118.956L116.964 12.0958H115.081V15.343H113.198ZM115.081 10.4449H117.442C117.678 10.4449 117.887 10.3767 118.069 10.2403C118.251 10.0947 118.397 9.90372 118.506 9.66723C118.615 9.43074 118.67 9.16696 118.67 8.8759C118.67 8.56664 118.606 8.29832 118.479 8.07092C118.351 7.83443 118.188 7.64797 117.987 7.51153C117.796 7.37509 117.587 7.30687 117.36 7.30687H115.081V10.4449Z" fill="white"/>
<path d="M130.717 15.343V8.98505L128.234 13.7194H127.184L124.701 8.98505V15.343H122.818V5.65599H124.837L127.702 11.168L130.595 5.65599H132.6V15.343H130.717Z" fill="white"/>
<path d="M139.303 15.4112C138.593 15.4112 137.947 15.2748 137.365 15.0019C136.792 14.729 136.296 14.3607 135.878 13.8968C135.469 13.4238 135.15 12.8962 134.923 12.3141C134.696 11.7229 134.582 11.118 134.582 10.4995C134.582 9.8537 134.7 9.23973 134.937 8.6576C135.182 8.06637 135.514 7.54336 135.933 7.08858C136.36 6.62469 136.86 6.26086 137.433 5.99708C138.016 5.72421 138.652 5.58777 139.344 5.58777C140.044 5.58777 140.681 5.72875 141.254 6.01072C141.836 6.29269 142.331 6.67017 142.741 7.14315C143.15 7.61613 143.468 8.14369 143.696 8.72582C143.923 9.30795 144.037 9.90827 144.037 10.5268C144.037 11.1635 143.919 11.7775 143.682 12.3687C143.446 12.9508 143.114 13.4738 142.686 13.9377C142.268 14.3925 141.768 14.7518 141.185 15.0156C140.612 15.2793 139.985 15.4112 139.303 15.4112ZM136.492 10.4995C136.492 10.9179 136.556 11.3227 136.683 11.7138C136.81 12.1049 136.992 12.4551 137.229 12.7644C137.474 13.0645 137.77 13.3056 138.116 13.4875C138.47 13.6603 138.871 13.7467 139.316 13.7467C139.771 13.7467 140.176 13.6557 140.531 13.4738C140.885 13.2828 141.181 13.0327 141.417 12.7234C141.654 12.4051 141.831 12.0549 141.949 11.6729C142.077 11.2817 142.14 10.8906 142.14 10.4995C142.14 10.0811 142.072 9.68088 141.936 9.29885C141.808 8.90773 141.622 8.56209 141.376 8.26193C141.14 7.95268 140.844 7.71164 140.49 7.53882C140.144 7.3569 139.753 7.26594 139.316 7.26594C138.852 7.26594 138.443 7.36145 138.088 7.55246C137.743 7.73438 137.452 7.97996 137.215 8.28922C136.979 8.59848 136.797 8.94412 136.669 9.32614C136.551 9.70816 136.492 10.0993 136.492 10.4995Z" fill="white"/>
<path d="M153.831 12.8462C153.831 13.392 153.69 13.8513 153.408 14.2242C153.126 14.5881 152.744 14.8655 152.262 15.0565C151.789 15.2475 151.271 15.343 150.707 15.343H146.027V5.65599H151.212C151.666 5.65599 152.058 5.77878 152.385 6.02437C152.722 6.26086 152.976 6.57011 153.149 6.95214C153.331 7.32507 153.422 7.71618 153.422 8.1255C153.422 8.58938 153.304 9.03053 153.067 9.44893C152.831 9.86734 152.485 10.1766 152.03 10.3767C152.585 10.5404 153.022 10.836 153.34 11.2635C153.667 11.691 153.831 12.2186 153.831 12.8462ZM151.935 12.4915C151.935 12.2459 151.885 12.0276 151.785 11.8366C151.685 11.6365 151.548 11.4818 151.375 11.3727C151.212 11.2544 151.021 11.1953 150.802 11.1953H147.91V13.7467H150.707C150.934 13.7467 151.139 13.6921 151.321 13.583C151.512 13.4647 151.662 13.3101 151.771 13.1191C151.88 12.9281 151.935 12.7189 151.935 12.4915ZM147.91 7.26594V9.70816H150.42C150.629 9.70816 150.82 9.65814 150.993 9.55808C151.166 9.45803 151.303 9.31704 151.403 9.13513C151.512 8.95321 151.566 8.73491 151.566 8.48023C151.566 8.23464 151.516 8.02089 151.416 7.83898C151.325 7.65706 151.198 7.51608 151.034 7.41602C150.88 7.31597 150.702 7.26594 150.502 7.26594H147.91Z" fill="white"/>
<path d="M42.5017 27.3914V22.6683H42.9673V27.3914H42.5017Z" fill="white"/>
<path d="M48.3028 23.0807H46.6198V27.3914H46.1541V23.0807H44.4711V22.6683H48.3028V23.0807Z" fill="white"/>
<path d="M49.2201 25.7882V25.3691H51.1626V25.7882H49.2201Z" fill="white"/>
<path d="M52.9845 27.3914V22.6683H53.4502V24.7704H54.162L55.7851 22.6683H56.3239L54.5478 24.9567L56.437 27.3914H55.8649L54.1753 25.1961H53.4502V27.3914H52.9845Z" fill="white"/>
<path d="M59.6416 27.4247C59.309 27.4247 59.0074 27.3581 58.7369 27.2251C58.4664 27.092 58.2336 26.9124 58.0384 26.6863C57.8433 26.4556 57.6925 26.1984 57.5861 25.9146C57.4796 25.6263 57.4264 25.3314 57.4264 25.0298C57.4264 24.715 57.4818 24.4156 57.5927 24.1318C57.7036 23.8435 57.8588 23.5885 58.0584 23.3668C58.2624 23.1406 58.4996 22.9632 58.7702 22.8346C59.0407 22.7015 59.3334 22.635 59.6483 22.635C59.9809 22.635 60.2825 22.7038 60.553 22.8412C60.8235 22.9787 61.0541 23.1628 61.2448 23.3934C61.44 23.624 61.5907 23.8812 61.6972 24.165C61.8036 24.4489 61.8568 24.7394 61.8568 25.0365C61.8568 25.3514 61.8014 25.6529 61.6905 25.9412C61.5797 26.225 61.4244 26.48 61.2249 26.7062C61.0253 26.928 60.7902 27.1031 60.5197 27.2317C60.2492 27.3604 59.9565 27.4247 59.6416 27.4247ZM57.8921 25.0298C57.8921 25.2871 57.9342 25.5354 58.0185 25.7749C58.1027 26.0099 58.2225 26.2206 58.3777 26.4069C58.5329 26.5887 58.7169 26.735 58.9298 26.8459C59.1471 26.9523 59.3844 27.0056 59.6416 27.0056C59.9121 27.0056 60.1538 26.9501 60.3667 26.8393C60.584 26.724 60.7681 26.5732 60.9189 26.3869C61.0741 26.1962 61.1916 25.9833 61.2714 25.7483C61.3513 25.5132 61.3912 25.2738 61.3912 25.0298C61.3912 24.7726 61.349 24.5265 61.2648 24.2914C61.1805 24.0564 61.0586 23.8457 60.8989 23.6595C60.7437 23.4732 60.5596 23.3268 60.3468 23.2204C60.1339 23.114 59.8988 23.0608 59.6416 23.0608C59.3755 23.0608 59.1338 23.1162 58.9165 23.2271C58.7036 23.3379 58.5196 23.4887 58.3644 23.6794C58.2136 23.8657 58.0961 24.0763 58.0118 24.3114C57.932 24.5464 57.8921 24.7859 57.8921 25.0298Z" fill="white"/>
<path d="M67.7173 27.3914V23.5464L66.0077 26.5333H65.715L63.9987 23.5464V27.3914H63.5331V22.6683H64.012L65.8547 25.9013L67.7107 22.6683H68.183V27.3914H67.7173Z" fill="white"/>
<path d="M70.1651 27.3914V22.6683H73.7307V27.3914H73.265V23.0807H70.6307V27.3914H70.1651Z" fill="white"/>
<path d="M77.1757 22.6683H77.5682L79.5306 27.3914H79.0383L78.4263 25.9146H76.3043L75.6989 27.3914H75.2L77.1757 22.6683ZM78.3199 25.5487L77.3686 23.2138L76.404 25.5487H78.3199Z" fill="white"/>
<path d="M84.7313 22.6683V27.3914H84.2722V25.1828H81.4716V27.3914H81.006V22.6683H81.4716V24.7704H84.2722V22.6683H84.7313Z" fill="white"/>
<path d="M86.7421 27.3914V22.6683H87.2011V26.7528L90.1281 22.6683H90.5605V27.3914H90.1015V23.3801L87.2078 27.3914H86.7421Z" fill="white"/>
<path d="M92.4083 27.3914L93.6722 25.3891C93.3308 25.3092 93.0669 25.1474 92.8806 24.9034C92.6988 24.6595 92.6079 24.369 92.6079 24.032C92.6079 23.7792 92.67 23.5508 92.7941 23.3468C92.9228 23.1384 93.1024 22.9743 93.333 22.8545C93.5636 22.7304 93.8386 22.6683 94.1579 22.6683H95.6214V27.3914H95.1624V25.4489H94.3175C94.2909 25.4489 94.2621 25.4489 94.231 25.4489C94.2044 25.4489 94.1778 25.4489 94.1512 25.4489L92.9405 27.3914H92.4083ZM94.1778 25.0431H95.1624V23.0741H94.2044C93.9871 23.0741 93.792 23.114 93.619 23.1938C93.4461 23.2736 93.313 23.3845 93.2199 23.5264C93.1268 23.6683 93.0802 23.8369 93.0802 24.032C93.0802 24.2271 93.1223 24.4001 93.2066 24.5509C93.2908 24.7017 93.4128 24.8214 93.5725 24.9101C93.7366 24.9988 93.9383 25.0431 94.1778 25.0431Z" fill="white"/>
<path fill-rule="evenodd" clip-rule="evenodd" d="M21.5902 14.992C25.2542 14.992 28.2245 17.9622 28.2245 21.6263C28.2245 25.2903 25.2542 28.2606 21.5902 28.2606L2.99209 28.2606C1.52316 28.2606 0.332362 29.4514 0.332362 30.9203C0.332362 32.3892 1.52317 33.58 2.9921 33.58L21.5902 33.58C28.1921 33.58 33.5439 28.2281 33.5439 21.6263C33.5439 15.0244 28.192 9.67249 21.5902 9.67249L13.6292 9.67249C12.1602 9.67249 10.9694 10.8633 10.9694 12.3322C10.9694 13.8012 12.1602 14.992 13.6292 14.992L21.5902 14.992Z" fill="white"/>
<path fill-rule="evenodd" clip-rule="evenodd" d="M21.5902 14.992C25.2542 14.992 28.2245 17.9622 28.2245 21.6263C28.2245 25.2903 25.2542 28.2606 21.5902 28.2606L2.99209 28.2606C1.52316 28.2606 0.332362 29.4514 0.332362 30.9203C0.332362 32.3892 1.52317 33.58 2.9921 33.58L21.5902 33.58C28.1921 33.58 33.5439 28.2281 33.5439 21.6263C33.5439 15.0244 28.192 9.67249 21.5902 9.67249L13.6292 9.67249C12.1602 9.67249 10.9694 10.8633 10.9694 12.3322C10.9694 13.8012 12.1602 14.992 13.6292 14.992L21.5902 14.992Z" fill="url(#paint0_linear_60_215)"/>
<g style="mix-blend-mode:overlay">
<path fill-rule="evenodd" clip-rule="evenodd" d="M21.5902 14.992C25.2542 14.992 28.2245 17.9622 28.2245 21.6263C28.2245 25.2903 25.2542 28.2606 21.5902 28.2606L2.93359 28.2606C1.46466 28.2606 0.332423 29.4514 0.332423 30.9203C0.332423 32.3892 1.46466 33.58 2.93359 33.58L21.5902 33.58C28.1921 33.58 33.5439 28.2281 33.5439 21.6263C33.5439 15.0244 28.192 9.67249 21.5902 9.67249L13.6292 9.67249C12.1602 9.67249 10.9694 10.8633 10.9694 12.3322C10.9694 13.8012 12.1602 14.992 13.6292 14.992L21.5902 14.992Z" fill="url(#paint1_linear_60_215)"/>
</g>
<path fill-rule="evenodd" clip-rule="evenodd" d="M12.2672 18.9089C8.60316 18.9089 5.63288 15.9386 5.63288 12.2746C5.63288 8.6106 8.60316 5.64032 12.2672 5.64033L30.937 5.64033C32.406 5.64033 33.5968 4.44953 33.5968 2.98059C33.5968 1.51167 32.406 0.320862 30.937 0.320862L12.2672 0.320858C5.6653 0.320858 0.313416 5.67274 0.313416 12.2746C0.313416 18.8765 5.6653 24.2284 12.2672 24.2284L20.2282 24.2284C21.6971 24.2284 22.8879 23.0376 22.8879 21.5687C22.8879 20.0997 21.6971 18.9089 20.2282 18.9089L12.2672 18.9089Z" fill="url(#paint2_linear_60_215)"/>
<g style="mix-blend-mode:multiply">
<path fill-rule="evenodd" clip-rule="evenodd" d="M12.2672 18.9089C8.60316 18.9089 5.63288 15.9386 5.63288 12.2746C5.63288 8.6106 8.60316 5.64032 12.2672 5.64033L30.937 5.64033C32.406 5.64033 33.5968 4.44953 33.5968 2.98059C33.5968 1.51167 32.406 0.320862 30.937 0.320862L12.2672 0.320858C5.6653 0.320858 0.313416 5.67274 0.313416 12.2746C0.313416 18.8765 5.6653 24.2284 12.2672 24.2284L20.2282 24.2284C21.6971 24.2284 22.8879 23.0376 22.8879 21.5687C22.8879 20.0997 21.6971 18.9089 20.2282 18.9089L12.2672 18.9089Z" fill="url(#paint3_linear_60_215)"/>
</g>
<path d="M9.80774 18.438C6.10151 17.158 3.43949 13.6385 3.43949 9.49722C3.43949 5.40352 6.04069 1.91737 9.68041 0.60144C4.32214 1.78355 0.313507 6.56092 0.313507 12.2746C0.313507 18.8764 5.66539 24.2283 12.2673 24.2283H20.2283C21.6972 24.2283 22.888 23.0375 22.888 21.5686C22.888 20.0997 21.6972 18.9089 20.2283 18.9089H13.8237C13.5185 18.9386 13.209 18.9538 12.896 18.9538C12.5379 18.9538 12.1845 18.9339 11.8367 18.8951C11.1239 18.8495 10.4417 18.6912 9.80774 18.438Z" fill="url(#paint4_linear_60_215)"/>
<path d="M24.0714 15.4628C27.7777 16.7427 30.4397 20.2623 30.4397 24.4035C30.4397 28.4972 27.8385 31.9834 24.1988 33.2993C29.557 32.1172 33.5657 27.3398 33.5657 21.6262C33.5657 15.0243 28.2138 9.67243 21.6119 9.67243L13.6509 9.67243C12.182 9.67243 10.9912 10.8632 10.9912 12.3322C10.9912 13.8011 12.182 14.9919 13.6509 14.9919L20.0555 14.9919C20.3607 14.9622 20.6701 14.947 20.9831 14.947C21.3412 14.947 21.6947 14.9669 22.0425 15.0056C22.7553 15.0513 23.4375 15.2095 24.0714 15.4628Z" fill="url(#paint5_linear_60_215)"/>
</g>
<defs>
<linearGradient id="paint0_linear_60_215" x1="30.1263" y1="9.67249" x2="1.99017" y2="28.8429" gradientUnits="userSpaceOnUse">
<stop stop-color="#392561"/>
<stop offset="0.608992" stop-color="#881037"/>
<stop offset="1" stop-color="#340111"/>
</linearGradient>
<linearGradient id="paint1_linear_60_215" x1="30.61" y1="19.7033" x2="13.9778" y2="33.58" gradientUnits="userSpaceOnUse">
<stop/>
<stop offset="1" stop-opacity="0"/>
</linearGradient>
<linearGradient id="paint2_linear_60_215" x1="-5.76204" y1="32.8702" x2="18.3835" y2="-10.3161" gradientUnits="userSpaceOnUse">
<stop stop-color="#4A2E91"/>
<stop offset="0.598958" stop-color="#9069E0"/>
<stop offset="1" stop-color="#39255F"/>
</linearGradient>
<linearGradient id="paint3_linear_60_215" x1="0.313415" y1="18.5321" x2="23.8166" y2="-1.84824" gradientUnits="userSpaceOnUse">
<stop/>
<stop offset="1" stop-opacity="0"/>
</linearGradient>
<linearGradient id="paint4_linear_60_215" x1="-3.29851" y1="5.64979" x2="22.1292" y2="29.8701" gradientUnits="userSpaceOnUse">
<stop stop-color="#AF1D42"/>
<stop offset="0.598958" stop-color="#9069E0"/>
<stop offset="1" stop-color="#39255F"/>
</linearGradient>
<linearGradient id="paint5_linear_60_215" x1="30.842" y1="33.2993" x2="5.62292" y2="19.4428" gradientUnits="userSpaceOnUse">
<stop stop-color="#392561"/>
<stop offset="0.608992" stop-color="#881037"/>
<stop offset="1" stop-color="#340111"/>
</linearGradient>
<clipPath id="clip0_60_215">
<rect width="154" height="34" fill="white"/>
</clipPath>
</defs>
</svg>
