<svg width="128" height="39" viewBox="0 0 128 39" fill="none" xmlns="http://www.w3.org/2000/svg">
<g clip-path="url(#clip0_224_10432)">
<path d="M122.036 33.5886C124.547 33.5886 126.326 33.1226 127.651 32.1188V27.566C126.291 28.5339 124.652 29.1433 122.35 29.1433C118.478 29.1433 116.874 26.0603 116.874 21.1849C116.874 16.0584 118.827 13.4415 122.385 13.4415C124.477 13.4415 126.535 14.1943 127.616 14.9113V10.1792C126.465 9.53391 124.477 9.06787 121.757 9.06787C114.816 9.06787 111.224 14.1943 111.224 21.3641C111.259 29.215 114.781 33.5886 122.036 33.5886ZM88.1003 31.5094V26.9566C86.4262 28.1396 83.5662 29.1792 80.9504 29.1792C76.9744 29.1792 75.4747 27.2433 75.2305 23.2999H88.3444V20.3603C88.3444 12.1509 84.8218 9.06787 79.4158 9.06787C72.7891 9.06787 69.6501 14.266 69.6501 21.3999C69.6501 29.6094 73.5913 33.5886 80.497 33.5886C83.9499 33.5886 86.4959 32.6207 88.1003 31.5094ZM38.3303 9.49806V18.8188H31.0758V9.49806H25.6349V33.1226H31.0758V23.2641H38.3303V33.1226H43.7711V9.49806H38.3303ZM68.2899 28.6773H65.8834V9.49806H50.0491V11.5056C50.0491 17.2773 49.7003 24.7339 47.782 28.6773H46.0382V38.4999H51.0605V33.1226H63.2327V38.4999H68.255V28.6773H68.2899ZM105.434 33.1226H111.608L102.888 20.3962L110.561 9.49806H105.086L97.4125 20.3962V9.49806H91.9717V33.1226H97.4125V21.5075L105.434 33.1226ZM79.2763 13.4415C81.9619 13.4415 82.7989 15.7358 82.7989 18.7113V19.1773H75.2305C75.37 15.4132 76.6954 13.4415 79.2763 13.4415ZM60.4425 28.6773H52.7695C54.2692 25.1282 54.6877 18.6754 54.6877 14.5886V13.8716H60.4425V28.6773Z" fill="white"/>
<path d="M21.1008 33.1226H15.5553V4.90943H13.079C8.54496 4.90943 6.1733 7.23962 6.1733 10.717C6.1733 14.6604 7.81253 16.4887 11.1956 18.8189L13.9858 20.7547L5.96403 33.1226H0L7.21962 22.0811C3.06921 19.034 0.732425 16.0585 0.732425 11.0396C0.732425 4.76604 4.98747 0.5 13.0441 0.5H21.0659L21.1008 33.1226Z" fill="white"/>
</g>
<defs>
<clipPath id="clip0_224_10432">
<rect width="128" height="38" fill="white" transform="translate(0 0.5)"/>
</clipPath>
</defs>
</svg>
